<svg xmlns="http://www.w3.org/2000/svg" width="24" height="24" viewBox="0 0 24 24">
  <g id="Group_6017" data-name="Group 6017" transform="translate(1161 2379)">
    <g id="ico_24_map_places_company" data-name="ico / 24 / map &amp; places / company" transform="translate(-1161 -2379)">
      <rect id="Bounding_box" data-name="Bounding box" width="24" height="24" fill="#8b8b8b" opacity="0"/>
      <path id="Icon_color" data-name="Icon color" d="M21.5,18H.5a.5.5,0,0,1-.5-.5v-1A.5.5,0,0,1,.5,16H4V1A1,1,0,0,1,5,0H17a1,1,0,0,1,1,1V16h3.5a.5.5,0,0,1,.5.5v1A.5.5,0,0,1,21.5,18Zm-15-4a.5.5,0,0,0-.5.5V16H16V14.5a.5.5,0,0,0-.5-.5Zm8-4a.5.5,0,0,0-.5.5v1a.5.5,0,0,0,.5.5h1a.5.5,0,0,0,.5-.5v-1a.5.5,0,0,0-.5-.5Zm-4,0a.5.5,0,0,0-.5.5v1a.5.5,0,0,0,.5.5h1a.5.5,0,0,0,.5-.5v-1a.5.5,0,0,0-.5-.5Zm-4,0a.5.5,0,0,0-.5.5v1a.5.5,0,0,0,.5.5h1a.5.5,0,0,0,.5-.5v-1a.5.5,0,0,0-.5-.5Zm8-4a.5.5,0,0,0-.5.5v1a.5.5,0,0,0,.5.5h1a.5.5,0,0,0,.5-.5v-1a.5.5,0,0,0-.5-.5Zm-4,0a.5.5,0,0,0-.5.5v1a.5.5,0,0,0,.5.5h1a.5.5,0,0,0,.5-.5v-1a.5.5,0,0,0-.5-.5Zm-4,0a.5.5,0,0,0-.5.5v1a.5.5,0,0,0,.5.5h1A.5.5,0,0,0,8,7.5v-1A.5.5,0,0,0,7.5,6Zm8-4a.5.5,0,0,0-.5.5v1a.5.5,0,0,0,.5.5h1a.5.5,0,0,0,.5-.5v-1a.5.5,0,0,0-.5-.5Zm-4,0a.5.5,0,0,0-.5.5v1a.5.5,0,0,0,.5.5h1a.5.5,0,0,0,.5-.5v-1a.5.5,0,0,0-.5-.5Zm-4,0a.5.5,0,0,0-.5.5v1a.5.5,0,0,0,.5.5h1A.5.5,0,0,0,8,3.5v-1A.5.5,0,0,0,7.5,2Z" transform="translate(1 3)" fill="#8b8b8b"/>
    </g>
  </g>
</svg>
