<svg xmlns="http://www.w3.org/2000/svg" width="24" height="24" viewBox="0 0 24 24">
  <g id="Group_6021" data-name="Group 6021" transform="translate(728 1989)">
    <g id="ico_24_ui_hidden" data-name="ico / 24 / ui / hidden" transform="translate(-728 -1989)">
      <rect id="Bounding_box" data-name="Bounding box" width="24" height="24" fill="#8b8b8b" opacity="0"/>
      <path id="Icon_color" data-name="Icon color" d="M17.96,18a.483.483,0,0,1-.35-.151l-2.948-2.94A11.052,11.052,0,0,1,9.994,16H9.939A10.639,10.639,0,0,1,.06,9.311.8.8,0,0,1,0,9a1,1,0,0,1,.06-.32A9.6,9.6,0,0,1,3.748,4l-2.6-2.62a.481.481,0,0,1,0-.7l.53-.53a.48.48,0,0,1,.7,0l16.46,16.47a.481.481,0,0,1,0,.7l-.53.53A.482.482,0,0,1,17.96,18ZM7.366,7.6A2.9,2.9,0,0,0,7,9a3,3,0,0,0,3,3,2.9,2.9,0,0,0,1.37-.4ZM17.6,12.9h0L7.115,2.411A10.661,10.661,0,0,1,19.988,8.7a.937.937,0,0,1,0,.3.806.806,0,0,1-.06.329A9.47,9.47,0,0,1,17.6,12.9Z" transform="translate(2 2.998)" fill="#8b8b8b"/>
    </g>
  </g>
</svg>
