<svg xmlns="http://www.w3.org/2000/svg" width="24" height="24" viewBox="0 0 24 24">
  <g id="Group_6018" data-name="Group 6018" transform="translate(1161 2282)">
    <g id="ico_24_other_flag" data-name="ico / 24 / other / flag" transform="translate(-1161 -2282)">
      <rect id="Bounding_box" data-name="Bounding box" width="24" height="24" fill="#8b8b8b" opacity="0"/>
      <path id="Icon_color" data-name="Icon color" d="M16,4.5v9a.5.5,0,0,1-.5.5H10a2,2,0,0,1-2-2H2v7.5a.5.5,0,0,1-.5.5H.5a.5.5,0,0,1-.5-.5V.5A.5.5,0,0,1,.5,0h1A.5.5,0,0,1,2,.5V2H8a2,2,0,0,1,2,2h5.5A.5.5,0,0,1,16,4.5Z" transform="translate(4 2)" fill="#8b8b8b"/>
    </g>
  </g>
</svg>
