<svg xmlns="http://www.w3.org/2000/svg" width="44" height="44" viewBox="0 0 44 44">
  <g id="Group_6016" data-name="Group 6016" transform="translate(-1632.586 -22)">
    <rect id="Rectangle_5" data-name="Rectangle 5" width="44" height="44" rx="22" transform="translate(1632.586 22)" fill="#1091bd"/>
    <g id="ico_24_actions_search" data-name="ico / 24 / actions / search" transform="translate(1642.586 32)">
      <rect id="Bounding_box" data-name="Bounding box" width="24" height="24" transform="translate(0)" fill="#fff" opacity="0"/>
      <path id="Icon_color" data-name="Icon color" d="M16.8,18a.5.5,0,0,1-.355-.149l-4-4a2.683,2.683,0,0,1-.3-.361l-.75-1a7.025,7.025,0,0,1-4.369,1.532H7A7.01,7.01,0,0,1,3.971.69a6.99,6.99,0,0,1,8.517,1.971,7.016,7.016,0,0,1-.046,8.753l1,.691a2.471,2.471,0,0,1,.43.35l4,4.005a.5.5,0,0,1-.02.691l-.7.7A.5.5,0,0,1,16.8,18ZM7.023,2a5.008,5.008,0,1,0,5,5.007A5.009,5.009,0,0,0,7.023,2Z" transform="translate(3 3)" fill="#fff"/>
    </g>
  </g>
</svg>
