<svg xmlns="http://www.w3.org/2000/svg" width="24" height="24" viewBox="0 0 24 24">
  <g id="Group_6017" data-name="Group 6017" transform="translate(-4362 130)">
    <g id="ico_24_ui_filter_list" data-name="ico / 24 / ui / filter_list" transform="translate(4362 -130)">
      <rect id="Bounding_box" data-name="Bounding box" width="24" height="24" fill="#656565" opacity="0"/>
      <path id="Icon_color" data-name="Icon color" d="M11.5,14h-5a.5.5,0,0,1-.5-.5v-1a.5.5,0,0,1,.5-.5h5a.5.5,0,0,1,.5.5v1A.5.5,0,0,1,11.5,14Zm3-6H3.5A.5.5,0,0,1,3,7.5v-1A.5.5,0,0,1,3.5,6h11a.5.5,0,0,1,.5.5v1A.5.5,0,0,1,14.5,8Zm3-6H.5A.5.5,0,0,1,0,1.5V.5A.5.5,0,0,1,.5,0h17a.5.5,0,0,1,.5.5v1A.5.5,0,0,1,17.5,2Z" transform="translate(3 5)" fill="#656565"/>
    </g>
  </g>
</svg>
