<?xml version="1.0" encoding="utf-8"?>
<!-- Generator: Adobe Illustrator 24.0.1, SVG Export Plug-In . SVG Version: 6.00 Build 0)  -->
<svg version="1.1" id="Layer_1" xmlns="http://www.w3.org/2000/svg" xmlns:xlink="http://www.w3.org/1999/xlink" x="0px" y="0px"
	 viewBox="0 0 32 28.1" style="enable-background:new 0 0 32 28.1;" xml:space="preserve">
<style type="text/css">
	.st0{fill:#386CE5;}
</style>
<g id="animal-rights" transform="translate(0 -30.999)">
	<path id="Path_2672" class="st0" d="M8.7,43.4c-0.1,0.7,0.2,1.4,0.7,2c0.2-0.1,0.3-0.3,0.5-0.5l0.4-0.4c0.2-0.2,0.3-0.3,0.5-0.5
		c-0.5-0.4-1.1-0.7-1.7-0.7C8.9,43.3,8.8,43.4,8.7,43.4z"/>
	<path id="Path_2673" class="st0" d="M16.8,48.3c-0.3-0.4-0.9-0.5-1.4-0.2c-0.1,0-0.1,0.1-0.2,0.2c-0.5,0.6-1,1.2-1.7,1.7
		c-0.2,0.2-0.4,0.5-0.4,0.8c0,0.5,0.4,0.9,0.9,0.9c0.5,0,1.1-0.2,1.6-0.4l0.3-0.1l0.3,0.1c0.5,0.2,1,0.3,1.6,0.4
		c0.5,0,0.9-0.4,0.9-0.9c0-0.3-0.1-0.6-0.4-0.8C17.8,49.5,17.2,48.9,16.8,48.3z"/>
	<path id="Path_2674" class="st0" d="M15.7,42.2h0.5c0.2,0,0.5,0,0.7,0c0-0.8-0.6-1.8-0.9-1.9c-0.3,0-0.9,1.1-0.9,1.9
		C15.3,42.3,15.5,42.3,15.7,42.2z"/>
	<path id="Path_2675" class="st0" d="M23,31c-2.8,0-5.4,1.3-7,3.5c-1.7-2.2-4.2-3.5-7-3.5c-4.7,0-9,3.8-9,10.3
		C0,47.1,4.2,54.8,15.7,59l0.3,0.1l0.3-0.1C27.8,54.8,32,47.1,32,41.3C32,34.8,27.7,31,23,31z M16,38.5c1.7,0,2.8,2.3,2.8,3.8
		c0,1.1-0.6,1.9-2.3,1.9h-1c-1.4,0-2.3-0.4-2.3-1.9C13.2,40.8,14.3,38.5,16,38.5z M9.3,47.3L9.3,47.3c-0.5,0-1-0.2-1.3-0.6
		c-1.1-1.1-1.9-3.4-0.7-4.6c0.7-0.6,1.7-0.8,2.6-0.5c0.8,0.2,1.5,0.6,2.1,1.1l0,0c0.4,0.3,0.6,0.8,0.6,1.3c-0.1,0.7-0.5,1.4-1.1,1.8
		l-0.3,0.3C10.7,46.8,10.1,47.2,9.3,47.3z M17.9,53.5c-0.6,0-1.3-0.2-1.9-0.4c-0.6,0.2-1.2,0.3-1.9,0.4c-1.6,0-2.8-1.3-2.8-2.8
		c0-0.9,0.4-1.8,1.2-2.3c0.5-0.3,0.9-0.8,1.2-1.2c1-1.3,2.8-1.5,4.1-0.5c0.2,0.1,0.3,0.3,0.5,0.5c0.3,0.5,0.8,0.9,1.2,1.2l0,0
		c1.3,0.9,1.6,2.7,0.6,3.9C19.6,53.1,18.8,53.5,17.9,53.5z M24,46.7c-0.3,0.4-0.8,0.6-1.3,0.6h0c-0.7-0.1-1.4-0.5-1.8-1.1l-0.3-0.3
		c-0.6-0.4-1-1.1-1.1-1.8c0-0.5,0.2-1,0.6-1.3c0.6-0.5,1.3-0.9,2.1-1.1c0.9-0.3,1.8-0.1,2.6,0.5C25.8,43.3,25,45.7,24,46.7L24,46.7z
		"/>
	<path id="Path_2676" class="st0" d="M21.3,44c0.1,0.2,0.3,0.3,0.5,0.5l0.4,0.4c0.2,0.2,0.3,0.3,0.5,0.5c0.5-0.5,0.7-1.3,0.6-2
		C22.6,43.3,21.9,43.6,21.3,44z"/>
</g>
</svg>
