<?xml version="1.0" encoding="utf-8"?>
<!-- Generator: Adobe Illustrator 24.0.1, SVG Export Plug-In . SVG Version: 6.00 Build 0)  -->
<svg version="1.1" id="Layer_1" xmlns="http://www.w3.org/2000/svg" xmlns:xlink="http://www.w3.org/1999/xlink" x="0px" y="0px"
	 viewBox="0 0 14 14" style="enable-background:new 0 0 14 14;" xml:space="preserve">
<style type="text/css">
	.st0{fill:#4B4B4B;fill-opacity:0;}
	.st1{fill:#FFFFFF;}
</style>
<g id="Group_6015" transform="translate(-1295 -59)">
	<rect id="Bounding_box" x="1295" y="59" class="st0" width="14" height="14"/>
	<path id="Icon_color" class="st1" d="M1302.4,68.2c-0.1,0.1-0.2,0.1-0.3,0.1h-0.2c-0.1,0-0.2,0-0.3-0.1l-2.9-2.9
		c-0.1-0.1-0.1-0.3,0-0.4c0,0,0,0,0,0l0.4-0.4c0.1-0.1,0.3-0.1,0.4,0c0,0,0,0,0,0l2.6,2.6l2.5-2.6c0.1-0.1,0.3-0.1,0.4,0
		c0,0,0,0,0,0l0.4,0.4c0.1,0.1,0.1,0.3,0,0.4c0,0,0,0,0,0L1302.4,68.2z"/>
</g>
</svg>
