<?xml version="1.0" encoding="utf-8"?>
<!-- Generator: Adobe Illustrator 24.0.1, SVG Export Plug-In . SVG Version: 6.00 Build 0)  -->
<svg version="1.1" id="Layer_1" xmlns="http://www.w3.org/2000/svg" xmlns:xlink="http://www.w3.org/1999/xlink" x="0px" y="0px"
	 viewBox="0 0 32 42" style="enable-background:new 0 0 32 42;" xml:space="preserve">
<style type="text/css">
	.st0{fill:#386CE5;}
</style>
<g id="Breeder" transform="translate(-61)">
	<path id="Path_2682" class="st0" d="M67.4,16.4c-0.1,0.9,0.2,1.9,0.9,2.6c0.2-0.2,0.4-0.4,0.6-0.6l0.5-0.5c0.2-0.2,0.4-0.4,0.6-0.6
		C69.4,16.6,67.8,16.1,67.4,16.4z"/>
	<path id="Path_2683" class="st0" d="M78,22.7c-0.4-0.6-1.2-0.7-1.8-0.2c-0.1,0.1-0.2,0.1-0.2,0.2c-0.6,0.8-1.3,1.6-2.2,2.2
		c-0.6,0.4-0.7,1.2-0.3,1.7c0.2,0.3,0.6,0.5,1,0.5c0.7-0.1,1.4-0.2,2-0.5l0.4-0.1l0.4,0.1c0.7,0.3,1.3,0.4,2,0.5
		c0.7,0,1.2-0.6,1.2-1.2c0-0.4-0.2-0.8-0.5-1C79.3,24.3,78.6,23.6,78,22.7z"/>
	<path id="Path_2684" class="st0" d="M76.7,14.9h0.7c0.3,0,0.6,0,0.9,0c0-1-0.8-2.4-1.2-2.4c-0.4,0.1-1.2,1.4-1.2,2.4
		C76.1,14.9,76.4,14.9,76.7,14.9z"/>
	<path id="Path_2685" class="st0" d="M77,0L65.9,2.8v1c0,2-1.7,3.7-3.7,3.7H61v15.8c0,13.2,15,18.4,15.6,18.6L77,42l0.4-0.1
		C78,41.7,93,36.5,93,23.3V7.5h-1.2c-2,0-3.7-1.7-3.7-3.7v-1L77,0z M77,9.9c2.2,0,3.7,3,3.7,4.9c0,1.5-0.8,2.5-3.1,2.5h-1.3
		c-1.8,0-3-0.6-3-2.5C73.3,12.9,74.8,9.9,77,9.9z M66.6,20.7c-1.4-1.4-2.4-4.5-0.9-6.1c1.5-1.5,4.7-0.5,6.1,0.9l0,0
		c1.4,1.4,0.8,2.8-0.6,4.1l-0.4,0.4C69.3,21.5,67.9,22.1,66.6,20.7z M79.5,29.6c-0.8,0-1.7-0.2-2.5-0.5c-0.8,0.3-1.6,0.4-2.5,0.5
		c-2,0-3.7-1.7-3.7-3.7c0-1.2,0.6-2.3,1.5-3c0.6-0.5,1.2-1,1.6-1.6c1.3-1.7,3.7-1.9,5.4-0.6c0.2,0.2,0.4,0.4,0.6,0.6
		c0.5,0.6,1,1.2,1.6,1.6l0,0c1.7,1.2,2,3.5,0.8,5.2C81.8,29,80.6,29.6,79.5,29.6L79.5,29.6z M88.3,14.6c1.6,1.6,0.5,4.7-0.9,6.1
		s-2.7,0.8-4.1-0.6l-0.4-0.4c-1.4-1.4-2.1-2.7-0.6-4.1S86.8,13.1,88.3,14.6z"/>
	<path id="Path_2686" class="st0" d="M84.6,17.9l0.5,0.5c0.2,0.2,0.4,0.4,0.6,0.6c0.7-0.7,1.1-2.3,0.9-2.6c-0.3-0.2-1.9,0.2-2.6,0.9
		C84.2,17.4,84.4,17.7,84.6,17.9z"/>
</g>
</svg>
