<svg xmlns="http://www.w3.org/2000/svg" width="63.909" height="63.917" viewBox="0 0 63.909 63.917">
  <path id="cage" d="M45.519,43.575H7.483V25.849h5.355V38.5a1.846,1.846,0,0,0,3.693,0V25.849h5.355V38.5a1.846,1.846,0,0,0,3.693,0V25.849h5.355V38.5a1.846,1.846,0,0,0,3.693,0V25.849h7.2A1.846,1.846,0,0,0,43.673,24v-.369C43.8,14.662,37.279,9.02,28.789,7.793a5.538,5.538,0,1,0-10.115,0c-8.489,1.225-15.008,6.87-14.883,15.84V43.575H1.944a1.846,1.846,0,0,0,0,3.693H45.519a1.846,1.846,0,0,0,0-3.693ZM16.531,22.157V18.279a7.213,7.213,0,0,1,5.355-6.96V22.157Zm9.047,0V11.319a7.213,7.213,0,0,1,5.355,6.96v3.877Zm14.333,0H34.626V18.279A10.826,10.826,0,0,0,33.2,12.9a10.885,10.885,0,0,1,6.708,9.255ZM23.732,3.693a1.846,1.846,0,1,1-1.846,1.846A1.849,1.849,0,0,1,23.732,3.693ZM12.012,14.2A13.627,13.627,0,0,1,14.261,12.9a10.827,10.827,0,0,0-1.422,5.377v3.877H7.553A10.6,10.6,0,0,1,12.012,14.2ZM41.827,40.344A1.846,1.846,0,0,1,39.98,38.5V31.112a1.846,1.846,0,0,1,3.693,0V38.5A1.846,1.846,0,0,1,41.827,40.344Z" transform="matrix(0.883, -0.469, 0.469, 0.883, -0.095, 22.233)" fill="#f72442" opacity="0.4"/>
</svg>
