<svg xmlns="http://www.w3.org/2000/svg" width="57.89" height="57.886" viewBox="0 0 57.89 57.886">
  <path id="cat" d="M47.268,4.663V21.827a1.846,1.846,0,0,1-3.693,0V4.663a.923.923,0,0,0-1.394-.794L37.5,6.99a7.479,7.479,0,0,1-6.757.778,20.067,20.067,0,0,0-14.246.085,7.452,7.452,0,0,1-7.06-.88L5.1,3.872a.923.923,0,0,0-1.405.787V21.827a1.846,1.846,0,0,1-3.693,0V4.66A4.616,4.616,0,0,1,7.146.8c.021.014,4.434,3.169,4.434,3.169a3.771,3.771,0,0,0,3.573.442,23.763,23.763,0,0,1,16.882-.1,3.777,3.777,0,0,0,3.413-.393l4.76-3.17a4.628,4.628,0,0,1,7.06,3.916Zm-2.29,24.046a6.193,6.193,0,0,1-.069,5.264,23.639,23.639,0,0,1-42.533.036,6.221,6.221,0,0,1,3.9-8.7,23.81,23.81,0,0,1,14.8.616,15.215,15.215,0,0,1,5.208.011,23.825,23.825,0,0,1,14.709-.66A6.193,6.193,0,0,1,44.978,28.709Zm-3.366,1.519a2.512,2.512,0,0,0-1.618-1.393,20.106,20.106,0,0,0-11.212.148,9.006,9.006,0,0,1-3.21,3.3v.528a3.142,3.142,0,0,0,3.139,3.139,1.846,1.846,0,0,1,0,3.693,6.813,6.813,0,0,1-4.985-2.168,6.813,6.813,0,0,1-4.985,2.168,1.846,1.846,0,0,1,0-3.693,3.142,3.142,0,0,0,3.139-3.139v-.462a9.286,9.286,0,0,1-3.2-3.337,20.073,20.073,0,0,0-11.4-.15A2.528,2.528,0,0,0,5.7,32.392c7.086,14.9,28.834,14.882,35.89-.03a2.51,2.51,0,0,0,.026-2.133Zm-7.277-12.1a2.308,2.308,0,1,1-2.113-2.113,2.309,2.309,0,0,1,2.113,2.113Zm-21.311,0a2.308,2.308,0,1,0,2.113-2.113,2.309,2.309,0,0,0-2.113,2.113Z" transform="matrix(0.966, 0.259, -0.259, 0.966, 12.242, -0.035)" fill="#f72442" opacity="0.4"/>
</svg>
