<svg id="ico_24_actions_checkmark_circle_outlined" data-name="ico / 24 / actions / checkmark_circle_outlined" xmlns="http://www.w3.org/2000/svg" width="16" height="16" viewBox="0 0 16 16">
  <rect id="Bounding_box" data-name="Bounding box" width="16" height="16" fill="#657783" opacity="0"/>
  <path id="Icon_color" data-name="Icon color" d="M6,12a6,6,0,1,1,6-6A6.007,6.007,0,0,1,6,12ZM6,1.2A4.8,4.8,0,1,0,10.8,6,4.806,4.806,0,0,0,6,1.2ZM5.01,8.1A.289.289,0,0,1,4.8,8.01L3.39,6.588a.3.3,0,0,1,0-.426l.318-.318a.288.288,0,0,1,.42,0l.9.894L7.872,3.894a.3.3,0,0,1,.42,0l.3.318a.3.3,0,0,1,.089.213.3.3,0,0,1-.089.213L5.22,8.01A.289.289,0,0,1,5.01,8.1Z" transform="translate(2 2)" fill="#657783"/>
</svg>
