<svg xmlns="http://www.w3.org/2000/svg" width="14" height="15" viewBox="0 0 14 15">
  <g id="headphones" transform="translate(-26.48)">
    <g id="Group_6157" data-name="Group 6157" transform="translate(26.48)">
      <path id="Path_2694" data-name="Path 2694" d="M38.958,5.131A5.313,5.313,0,0,0,33.48,0,5.313,5.313,0,0,0,28,5.131,1.587,1.587,0,0,0,26.48,6.813v2.68a1.652,1.652,0,0,0,1.826,1.71h.883a.3.3,0,0,0,.3-.285V5.4a.3.3,0,0,0-.3-.285H28.61a4.88,4.88,0,0,1,9.739,0h-.578a.3.3,0,0,0-.3.285v5.51a.3.3,0,0,0,.3.285h.578c-.085,1.958-1.09,2.417-3.1,2.5V13.5a.59.59,0,0,0-.609-.57H32.731a.59.59,0,0,0-.609.57v.926a.59.59,0,0,0,.609.57h1.92a.59.59,0,0,0,.609-.57v-.165c1.93-.083,3.6-.456,3.7-3.087A1.587,1.587,0,0,0,40.48,9.5V6.816A1.585,1.585,0,0,0,38.958,5.131Zm-10.074.533v4.96h-.593a1.078,1.078,0,0,1-1.217-1.14V6.8a1.079,1.079,0,0,1,1.217-1.14ZM34.652,14v.433h-1.92v-.926h1.92Zm5.22-4.507a1.079,1.079,0,0,1-1.217,1.14h-.578V5.684h.593a1.078,1.078,0,0,1,1.217,1.14Z" transform="translate(-26.48)" fill="#f72442"/>
    </g>
  </g>
</svg>
