<svg xmlns="http://www.w3.org/2000/svg" width="57.87" height="57.812" viewBox="0 0 57.87 57.812">
  <path id="hedgehog" d="M21.929,6.4A11.667,11.667,0,0,0,21.9,2.526a1.846,1.846,0,1,1,3.664-.46,15.2,15.2,0,0,1-.034,5.173,1.846,1.846,0,1,1-3.6-.838ZM46.584,33.172a1.846,1.846,0,0,0-2.6.275c-11.115,14.006-29.59,14-40.7,0A1.846,1.846,0,1,0,.412,35.769c12.531,15.822,33.918,15.82,46.447,0A1.847,1.847,0,0,0,46.584,33.172Zm-24.795,4.3a1.846,1.846,0,0,0,0,3.693h3.693a1.846,1.846,0,0,0,0-3.693ZM36.055,36.2a1.85,1.85,0,0,0,2.281-1.271,16.348,16.348,0,0,0,.623-4.475c.012-4.149-2.959-6.366-7.135-6.278a25.585,25.585,0,0,0-8.189,1.879,25.585,25.585,0,0,0-8.189-1.879A7.4,7.4,0,0,0,10,26a5.992,5.992,0,0,0-1.69,4.452,16.352,16.352,0,0,0,.623,4.475,1.846,1.846,0,1,0,3.552-1.011A12.657,12.657,0,0,1,12,30.454a2.442,2.442,0,0,1,.588-1.821,3.977,3.977,0,0,1,2.8-.764,23.485,23.485,0,0,1,7.493,1.872,1.846,1.846,0,0,0,1.5,0,23.334,23.334,0,0,1,7.493-1.872,3.974,3.974,0,0,1,2.8.764,2.442,2.442,0,0,1,.588,1.821,12.654,12.654,0,0,1-.482,3.464A1.846,1.846,0,0,0,36.054,36.2ZM4.248,29.808A1.846,1.846,0,0,0,5.592,26.7a9.313,9.313,0,0,1-1.979-3.153A1.848,1.848,0,0,0,0,24.084c0,.852.909,3.026,2.9,5.143a1.84,1.84,0,0,0,1.345.581Zm.74-9.693a1.853,1.853,0,0,0,1.484-2.943,9.431,9.431,0,0,1-1.608-3.385,1.847,1.847,0,0,0-3.662.327,10.65,10.65,0,0,0,2.3,5.251,1.844,1.844,0,0,0,1.487.75Zm4.8-6.37a1.847,1.847,0,0,0,1.6-2.764,9.75,9.75,0,0,1-1.24-3.636,1.846,1.846,0,0,0-3.687.121,13.4,13.4,0,0,0,1.721,5.348,1.846,1.846,0,0,0,1.6.93ZM15.88,9.959a1.848,1.848,0,0,0,1.745-2.452,10.67,10.67,0,0,1-.544-3.919,1.846,1.846,0,0,0-3.693,0,18.262,18.262,0,0,0,.748,5.129A1.847,1.847,0,0,0,15.88,9.959ZM43.658,23.543A9.313,9.313,0,0,1,41.678,26.7a1.846,1.846,0,1,0,2.689,2.531c1.993-2.117,2.9-4.291,2.9-5.143a1.848,1.848,0,0,0-3.612-.541Zm-2.47-3.79a1.847,1.847,0,0,0,2.582-.388,10.651,10.651,0,0,0,2.3-5.251,1.847,1.847,0,0,0-3.662-.327A9.429,9.429,0,0,1,40.8,17.171,1.846,1.846,0,0,0,41.187,19.753ZM36.567,13.5a1.848,1.848,0,0,0,2.52-.686,13.394,13.394,0,0,0,1.721-5.348,1.846,1.846,0,0,0-3.687-.121,9.753,9.753,0,0,1-1.24,3.636A1.846,1.846,0,0,0,36.567,13.5ZM30.785,9.857a1.845,1.845,0,0,0,2.349-1.14,18.262,18.262,0,0,0,.748-5.129,1.846,1.846,0,0,0-3.693,0,10.67,10.67,0,0,1-.544,3.919,1.846,1.846,0,0,0,1.14,2.349ZM29.544,31.469a2.308,2.308,0,1,1-2.308,2.308A2.308,2.308,0,0,1,29.544,31.469Zm-11.817,0a2.308,2.308,0,1,0,2.308,2.308A2.308,2.308,0,0,0,17.727,31.469Z" transform="matrix(0.966, -0.259, 0.259, 0.966, -0.117, 11.8)" fill="#f72442" opacity="0.4"/>
</svg>
