<svg xmlns="http://www.w3.org/2000/svg" width="57.865" height="57.894" viewBox="0 0 57.865 57.894">
  <path id="pawprint_1_" data-name="pawprint (1)" d="M5.775,14.594c-6.6,1.175-7.09,9.682-2.668,13.655a6.335,6.335,0,0,0,5.3,1.672,6.165,6.165,0,0,0,3.98-2.592c3.655-5.159.235-13.942-6.617-12.736Zm3.6,10.6A2.508,2.508,0,0,1,7.79,26.281c-1.656.283-3.4-1.479-3.807-3.847A4,4,0,0,1,4.5,19.4a2.849,2.849,0,0,1,1.9-1.161c1.857-.317,3.3.925,3.69,3.163A5.188,5.188,0,0,1,9.377,25.2Zm29-16.992c.44-4.32-2.049-7.754-5.918-8.167a6.421,6.421,0,0,0-4.764,1.387c-4.646,3.68-3.232,13.477,3.154,14.237C34.953,16.055,38.01,12.238,38.375,8.206ZM34.7,7.831A5.328,5.328,0,0,1,32.963,11.4a2.377,2.377,0,0,1-1.724.587c-1.639-.175-2.813-2.382-2.565-4.82.2-2.035,1.392-3.656,3.391-3.46C33.874,3.9,34.933,5.56,34.7,7.831Zm-14.438-6.4A6.436,6.436,0,0,0,15.49.039c-6.915.706-7.745,10.27-2.839,14.23A6.035,6.035,0,0,0,17.1,15.663c6.391-.759,7.811-10.551,3.162-14.234ZM16.71,11.991a2.392,2.392,0,0,1-1.733-.59,5.326,5.326,0,0,1-1.739-3.569c-.232-2.271.83-3.927,2.643-4.12C20.388,3.287,20.212,11.58,16.71,11.991ZM46.2,17.171A6.554,6.554,0,0,0,41.9,14.5c-3.875-.662-7.22,1.935-7.951,6.176a8.818,8.818,0,0,0,1.334,6.56,6.165,6.165,0,0,0,3.98,2.592,6.336,6.336,0,0,0,5.3-1.672c2.892-2.48,3.935-7.885,1.623-10.986Zm-2.5,5.171c-.379,2.2-1.911,3.876-3.454,3.876a2.1,2.1,0,0,1-.353-.03A2.508,2.508,0,0,1,38.3,25.106a5.187,5.187,0,0,1-.71-3.8c.386-2.238,1.832-3.48,3.69-3.163a2.849,2.849,0,0,1,1.9,1.161,4,4,0,0,1,.517,3.039ZM24.025,47.268h-.009c-6.853.09-14.189-.2-14.209-7.256.3-5.09,7-20,14.125-20.071,7.1.055,13.816,15.022,14.125,20.071a6.611,6.611,0,0,1-1.333,4.232c-2.78,3.26-7.574,2.931-12.7,3.024h0Zm-.092-23.634c-1.693,0-4.323,2.689-6.7,6.852-2.313,4.05-3.733,8.278-3.733,9.527,0,3.047,2.626,3.562,10.52,3.563s10.345-.492,10.345-3.563c0-1.226-1.42-5.431-3.734-9.494C29.068,27.84,26.452,23.864,23.932,23.634Z" transform="matrix(0.966, 0.259, -0.259, 0.966, 12.022, -0.058)" fill="#f72442" opacity="0.4"/>
</svg>
