<svg xmlns="http://www.w3.org/2000/svg" xmlns:xlink="http://www.w3.org/1999/xlink" width="215.987" height="171.697" viewBox="0 0 215.987 171.697">
  <defs>
    <clipPath id="clip-path">
      <path id="Path_2596" data-name="Path 2596" d="M248.656,185.7a32.458,32.458,0,0,0,3.745-25.143c-2.453-8.789-9.463-16.342-18.258-18.776-9.987-2.759-20.649,1.042-29.569,6.3s-16.966,12.06-26.5,16.155c-2.74,1.174-5.936,2.1-8.614.818-8.627-4.145,4.544-11.6,7.491-13.4A148.9,148.9,0,0,1,200.1,140.084c11.529-4.557,23.982-7.69,36.267-6.074s24.344,8.7,29.407,20.019c4.051,9.114,3.171,19.594,1.642,29.451-.487,3.159-1.124,6.492-3.283,8.845-3.215,3.5-8.683,3.658-13.371,2.815-1.735-.306-3.677-.9-4.419-2.5-.9-1.954.493-4.12,1.66-5.924Q248.338,186.233,248.656,185.7Z" transform="translate(-166.575 -133.58)" fill="#7e57c2" stroke="#263238" stroke-miterlimit="10" stroke-width="1.5"/>
    </clipPath>
    <clipPath id="clip-path-3">
      <path id="Path_2612" data-name="Path 2612" d="M327.664,312.228s2.116,10.387,5.381,15.967,9.813,5.194,10.774.768-3.458-9.987-4.613-14.232S338.244,303,338.244,303,327.277,302.034,327.664,312.228Z" transform="translate(-327.654 -302.971)" fill="#7e57c2" stroke="#263238" stroke-miterlimit="10" stroke-width="1.5"/>
    </clipPath>
    <clipPath id="clip-path-4">
      <path id="Path_2619" data-name="Path 2619" d="M176.9,278.478s-8.271,3.845-9.813,8.077a57.492,57.492,0,0,0-2.3,8.851s-10.393,4.806-18.277,7.491-15.967,3.652-20.6,6.923-4.813,6.929-2.116,9.619,8.077,1.735,9.813.768,5.768-4.806,11.155-5.768,21.548,2.31,30.974.381,17.478-4.994,19.625-4.994,10.612,1.155,16.161-2.5,1.923-20.6-2.31-28.858S182.674,275.588,176.9,278.478Z" transform="translate(-122.033 -274.074)" fill="#7e57c2" stroke="#263238" stroke-miterlimit="10" stroke-width="1.5"/>
    </clipPath>
    <clipPath id="clip-path-5">
      <path id="Path_2623" data-name="Path 2623" d="M229.037,269.82c8.851,9.619,15.393,13.858,24.432,14.981s20.78,0,29.819-3.845,11.161-6.348,11.161-6.348a53.167,53.167,0,0,0,6.155-3.658c4.426-2.884,12.484-11.348,14.619-22.316a41.661,41.661,0,0,0-4.526-28.265c-5.618-9.713-15.955-14.688-27.016-14.881-6.723-.112-12.953,2.3-18.477,6.017-10.581,7.116-13.109,13.277-13.109,13.277H241.16s-5.387-2.116-15.2,7.884" transform="translate(-225.96 -205.484)" fill="#7e57c2" stroke="#263238" stroke-miterlimit="10" stroke-width="1.5"/>
    </clipPath>
    <clipPath id="clip-path-6">
      <path id="Path_2639" data-name="Path 2639" d="M232.173,241.387s-3.6,9.1-9.095,12.066a24.669,24.669,0,0,1-10.612,2.965,18.11,18.11,0,0,1-10.793,4.02c-6.985.424-11.236-5.93-11.236-8.046V246.68s-4.444-5.506-4.232-8.464.424-16.3,8.046-21.585,15.025-4.657,20.949-3.389,12.484,8.464,14.6,12.7a24.548,24.548,0,0,1,2.122,9.526" transform="translate(-186.198 -212.362)" fill="#7e57c2" stroke="#263238" stroke-miterlimit="10" stroke-width="1.5"/>
    </clipPath>
    <clipPath id="clip-path-7">
      <path id="Path_2657" data-name="Path 2657" d="M263.677,280.2s6.542.193,14.813,4.619,16.542,6.542,16.542,11.348-17.122,14.813-25.393,20.967-14.813,12.122-20.6,13.664-13.271,1.729-14.232-2.116,4.039-4.813,6.923-5.193,7.7-1.542,7.7-1.542l9.8-9.413s-11.161-.768-16.354-9.813" transform="translate(-234.686 -280.2)" fill="#7e57c2" stroke="#263238" stroke-miterlimit="10" stroke-width="1.5"/>
    </clipPath>
  </defs>
  <g id="Playful_cat-bro" data-name="Playful cat-bro" transform="translate(-52.89 -99.87)">
    <g id="freepik--Plants--inject-61" transform="translate(52.89 99.87)">
      <path id="Path_2592" data-name="Path 2592" d="M170.848,165.837c-5.968-4.089-14.894-4.794-14.894-4.794,13.109-2.054,25.68,2.06,25.68,2.06s-8.365-6.167-14.357-6.167-15.524-.687-15.524-.687c3.577-4.107,16.685-8.9,16.685-8.9s-9.557,0-13.733.687-5.375,5.474-5.375,5.474-1.192-2.74-10.15-4.794-11.317,4.794-11.317,4.794h8.358c2.99,0,7.166,4.114,7.166,4.114s-9.551,0-13.109,2.054c-3.084,1.767-7.041,9.1-8.115,11.117A234.781,234.781,0,0,1,132.6,133.7l.237-.181a77.679,77.679,0,0,0,8.4-6.729l10.106,16.854-.843-14.357s8.414,2.528,10.943,5.05,10.119,10.968,10.119,10.968-3.371-12.622-7.578-16.854-11.773-9.238-11.773-9.238,9.263,0,12.628,1.685,13.439,8.389,13.439,8.389-6.717-11.76-11.785-14.282-18.521-2.528-18.521-2.528,5.893-5.05,10.1-5.05h11.785s-3.365-8.414-15.992-5.893-14.307,5.905-14.307,5.905-1.685-5.893-7.578-6.729-19.351-.843-19.351-.843,18.514,5.893,23.564,10.943c0,0-13.464.843-21.885.843s-20.2,7.572-20.2,7.572,17.678-5.05,36.2-2.5c0,0-12.622.836-21.042,5.893s-16.854,16.854-16.854,16.854,7.578-7.572,17.678-10.1,24.413-5.893,24.413-5.893-14.313,11.723-16,17.615-6.735,15.992-6.735,15.992,12.066-15.418,18.851-21.723a227.3,227.3,0,0,0-13.577,69.22c-2.5-10.212-9.775-31.348-28.82-41.941,3.608.986,8.808,2.422,13,3.62,7.166,2.054,12.541,8.221,12.541,8.221s-5.974-9.588-11.948-13.7-14.931-4.794-14.931-4.794c13.109-2.054,25.68,2.054,25.68,2.054s-8.358-6.161-14.357-6.161-15.524-.687-15.524-.687c3.583-4.107,16.723-8.9,16.723-8.9s-9.557,0-13.733.68-5.375,5.481-5.375,5.481-1.192-2.74-10.156-4.794S58.8,148.459,58.8,148.459h8.389c2.984,0,7.166,4.114,7.166,4.114s-9.557,0-13.109,2.054-8.358,11.642-8.358,11.642,7.166-5.481,9.557-6.866,8.958-1.373,8.958-1.373a71.216,71.216,0,0,0-8.365,7.534c-2.99,3.421-5.375,13.733-5.375,13.733s5.375-6.866,7.166-8.9,7.765-4.114,7.765-4.114l-.624,11.648L79.145,164.2a54.723,54.723,0,0,0,5.968,5.481c4.182,3.421,14.931,19.176,14.931,19.176a112.033,112.033,0,0,1-4.775-13.015c-.986-3.945-8.034-11.136-10.493-13.552,24.344,11.423,30.786,40.175,31.96,46.816H106.641l2.222,19.557h17.753l2.216-19.557H118.408c.624-3.983,2.859-15.874,8.739-26.673-.306,1.136-.481,1.873-.481,1.873s5.375-6.866,7.172-8.9,7.759-4.082,7.759-4.082l-.624,11.654,7.166-13.733a54.513,54.513,0,0,0,5.974,5.481c4.176,3.427,14.925,19.176,14.925,19.176a112.033,112.033,0,0,1-4.775-13.015c-1.192-4.794-11.348-14.357-11.348-14.357s10.156,2.74,17.322,4.794,12.559,8.221,12.559,8.221S176.822,169.951,170.848,165.837ZM118.37,202.76a212.723,212.723,0,0,1,3.708-31.592c1.13-.861,7.191-5.456,9.363-6.7,2.391-1.367,8.958-1.367,8.958-1.367a70.6,70.6,0,0,0-8.365,7.534,23.451,23.451,0,0,0-3.389,6.866C122.983,186.043,119.919,196.081,118.37,202.76Z" transform="translate(-52.89 -99.87)" fill="#7e57c2"/>
      <path id="Path_2593" data-name="Path 2593" d="M170.848,165.837c-5.968-4.089-14.894-4.794-14.894-4.794,13.109-2.054,25.68,2.06,25.68,2.06s-8.365-6.167-14.357-6.167-15.524-.687-15.524-.687c3.577-4.107,16.685-8.9,16.685-8.9s-9.557,0-13.733.687-5.375,5.474-5.375,5.474-1.192-2.74-10.15-4.794-11.317,4.794-11.317,4.794h8.358c2.99,0,7.166,4.114,7.166,4.114s-9.551,0-13.109,2.054c-3.084,1.767-7.041,9.1-8.115,11.117A234.781,234.781,0,0,1,132.6,133.7l.237-.181a77.679,77.679,0,0,0,8.4-6.729l10.106,16.854-.843-14.357s8.414,2.528,10.943,5.05,10.119,10.968,10.119,10.968-3.371-12.622-7.578-16.854-11.773-9.238-11.773-9.238,9.263,0,12.628,1.685,13.439,8.389,13.439,8.389-6.717-11.76-11.785-14.282-18.521-2.528-18.521-2.528,5.893-5.05,10.1-5.05h11.785s-3.365-8.414-15.992-5.893-14.307,5.905-14.307,5.905-1.685-5.893-7.578-6.729-19.351-.843-19.351-.843,18.514,5.893,23.564,10.943c0,0-13.464.843-21.885.843s-20.2,7.572-20.2,7.572,17.678-5.05,36.2-2.5c0,0-12.622.836-21.042,5.893s-16.854,16.854-16.854,16.854,7.578-7.572,17.678-10.1,24.413-5.893,24.413-5.893-14.313,11.723-16,17.615-6.735,15.992-6.735,15.992,12.066-15.418,18.851-21.723a227.3,227.3,0,0,0-13.577,69.22c-2.5-10.212-9.775-31.348-28.82-41.941,3.608.986,8.808,2.422,13,3.62,7.166,2.054,12.541,8.221,12.541,8.221s-5.974-9.588-11.948-13.7-14.931-4.794-14.931-4.794c13.109-2.054,25.68,2.054,25.68,2.054s-8.358-6.161-14.357-6.161-15.524-.687-15.524-.687c3.583-4.107,16.723-8.9,16.723-8.9s-9.557,0-13.733.68-5.375,5.481-5.375,5.481-1.192-2.74-10.156-4.794S58.8,148.459,58.8,148.459h8.389c2.984,0,7.166,4.114,7.166,4.114s-9.557,0-13.109,2.054-8.358,11.642-8.358,11.642,7.166-5.481,9.557-6.866,8.958-1.373,8.958-1.373a71.216,71.216,0,0,0-8.365,7.534c-2.99,3.421-5.375,13.733-5.375,13.733s5.375-6.866,7.166-8.9,7.765-4.114,7.765-4.114l-.624,11.648L79.145,164.2a54.723,54.723,0,0,0,5.968,5.481c4.182,3.421,14.931,19.176,14.931,19.176a112.033,112.033,0,0,1-4.775-13.015c-.986-3.945-8.034-11.136-10.493-13.552,24.344,11.423,30.786,40.175,31.96,46.816H106.641l2.222,19.557h17.753l2.216-19.557H118.408c.624-3.983,2.859-15.874,8.739-26.673-.306,1.136-.481,1.873-.481,1.873s5.375-6.866,7.172-8.9,7.759-4.082,7.759-4.082l-.624,11.654,7.166-13.733a54.513,54.513,0,0,0,5.974,5.481c4.176,3.427,14.925,19.176,14.925,19.176a112.033,112.033,0,0,1-4.775-13.015c-1.192-4.794-11.348-14.357-11.348-14.357s10.156,2.74,17.322,4.794,12.559,8.221,12.559,8.221S176.822,169.951,170.848,165.837ZM118.37,202.76a212.723,212.723,0,0,1,3.708-31.592c1.13-.861,7.191-5.456,9.363-6.7,2.391-1.367,8.958-1.367,8.958-1.367a70.6,70.6,0,0,0-8.365,7.534,23.451,23.451,0,0,0-3.389,6.866C122.983,186.043,119.919,196.081,118.37,202.76Z" transform="translate(-52.89 -99.87)" fill="#fff" opacity="0.5"/>
    </g>
    <g id="freepik--Cat--inject-61" transform="translate(96.05 120.912)">
      <path id="Path_2594" data-name="Path 2594" d="M248.656,185.7a32.458,32.458,0,0,0,3.745-25.143c-2.453-8.789-9.463-16.342-18.258-18.776-9.987-2.759-20.649,1.042-29.569,6.3s-16.966,12.06-26.5,16.155c-2.74,1.174-5.936,2.1-8.614.818-8.627-4.145,4.544-11.6,7.491-13.4A148.9,148.9,0,0,1,200.1,140.084c11.529-4.557,23.982-7.69,36.267-6.074s24.344,8.7,29.407,20.019c4.051,9.114,3.171,19.594,1.642,29.451-.487,3.159-1.124,6.492-3.283,8.845-3.215,3.5-8.683,3.658-13.371,2.815-1.735-.306-3.677-.9-4.419-2.5-.9-1.954.493-4.12,1.66-5.924Q248.338,186.233,248.656,185.7Z" transform="translate(-138.771 -133.58)" fill="#7e57c2"/>
      <g id="Group_6062" data-name="Group 6062" transform="translate(27.804 0)" clip-path="url(#clip-path)">
        <path id="Path_2595" data-name="Path 2595" d="M183.011,156.92c-2.035,1.124-4.051,2.285-6.036,3.5-2.94,1.8-16.111,9.257-7.491,13.4,2.678,1.286,5.874.356,8.614-.818a78.845,78.845,0,0,0,11.735-6.5C188.629,160.94,185.888,158.218,183.011,156.92Z" transform="translate(-166.584 -142.351)" fill="#fff"/>
      </g>
      <path id="Path_2597" data-name="Path 2597" d="M248.656,185.7a32.458,32.458,0,0,0,3.745-25.143c-2.453-8.789-9.463-16.342-18.258-18.776-9.987-2.759-20.649,1.042-29.569,6.3s-16.966,12.06-26.5,16.155c-2.74,1.174-5.936,2.1-8.614.818-8.627-4.145,4.544-11.6,7.491-13.4A148.9,148.9,0,0,1,200.1,140.084c11.529-4.557,23.982-7.69,36.267-6.074s24.344,8.7,29.407,20.019c4.051,9.114,3.171,19.594,1.642,29.451-.487,3.159-1.124,6.492-3.283,8.845-3.215,3.5-8.683,3.658-13.371,2.815-1.735-.306-3.677-.9-4.419-2.5-.9-1.954.493-4.12,1.66-5.924Q248.338,186.233,248.656,185.7Z" transform="translate(-138.771 -133.58)" fill="none" stroke="#263238" stroke-miterlimit="10" stroke-width="1.5"/>
      <path id="Path_2598" data-name="Path 2598" d="M248.656,185.7a32.458,32.458,0,0,0,3.745-25.143c-2.453-8.789-9.463-16.342-18.258-18.776-9.987-2.759-20.649,1.042-29.569,6.3s-16.966,12.06-26.5,16.155c-2.74,1.174-5.936,2.1-8.614.818-8.627-4.145,4.544-11.6,7.491-13.4A148.9,148.9,0,0,1,200.1,140.084c11.529-4.557,23.982-7.69,36.267-6.074s24.344,8.7,29.407,20.019c4.051,9.114,3.171,19.594,1.642,29.451-.487,3.159-1.124,6.492-3.283,8.845-3.215,3.5-8.683,3.658-13.371,2.815-1.735-.306-3.677-.9-4.419-2.5-.9-1.954.493-4.12,1.66-5.924Q248.338,186.233,248.656,185.7Z" transform="translate(-138.771 -133.58)" fill="#7e57c2"/>
      <g id="Group_6063" data-name="Group 6063" transform="translate(27.804 0)" clip-path="url(#clip-path)">
        <path id="Path_2599" data-name="Path 2599" d="M293.369,145.363c-1.91,3.708,0,4.638,0,4.638a9.258,9.258,0,0,1,.992-4.282,6.286,6.286,0,0,1,3.252-3.471S295.279,141.649,293.369,145.363Z" transform="translate(-213.903 -136.824)" fill="#263238"/>
        <path id="Path_2600" data-name="Path 2600" d="M277.05,138.68c-1.323,3.277.243,4.207.243,4.207a9.083,9.083,0,0,1,.581-3.833,4.508,4.508,0,0,1,2.391-2.99S278.38,135.378,277.05,138.68Z" transform="translate(-207.89 -134.491)" fill="#263238"/>
        <path id="Path_2601" data-name="Path 2601" d="M257.92,136.533c-1.323,3.277.243,4.207.243,4.207a8.995,8.995,0,0,1,.574-3.833,4.526,4.526,0,0,1,2.391-2.99S259.244,133.255,257.92,136.533Z" transform="translate(-200.701 -133.686)" fill="#263238"/>
        <path id="Path_2602" data-name="Path 2602" d="M309.164,153.685s-1.717-2.122-5.986-.3-3.165,3.939-3.165,3.939a9.948,9.948,0,0,1,3.839-2.934A7.285,7.285,0,0,1,309.164,153.685Z" transform="translate(-216.67 -140.745)" fill="#263238"/>
        <path id="Path_2603" data-name="Path 2603" d="M309.262,165.428a7.316,7.316,0,0,1,5.25-1.08s-1.873-2-6,.131-2.871,4.151-2.871,4.151A9.837,9.837,0,0,1,309.262,165.428Z" transform="translate(-218.766 -144.823)" fill="#263238"/>
        <path id="Path_2604" data-name="Path 2604" d="M312.049,177.789c-5.618,1.373-4.869,4.245-4.869,4.245s1.461-1.6,5.393-2.853a8.494,8.494,0,0,1,6.529.256S317.667,176.434,312.049,177.789Z" transform="translate(-219.399 -150.061)" fill="#263238"/>
        <path id="Path_2605" data-name="Path 2605" d="M311.812,198.607c-5.655,1.136-5.044,4.039-5.044,4.039s1.529-1.536,5.512-2.628a8.48,8.48,0,0,1,6.511.524S317.467,197.465,311.812,198.607Z" transform="translate(-219.25 -157.92)" fill="#263238"/>
        <path id="Path_2606" data-name="Path 2606" d="M183.011,156.92c-2.035,1.124-4.051,2.285-6.036,3.5-2.94,1.8-16.111,9.257-7.491,13.4,2.678,1.286,5.874.356,8.614-.818a78.845,78.845,0,0,0,11.735-6.5C188.629,160.94,185.888,158.218,183.011,156.92Z" transform="translate(-166.584 -142.351)" fill="#fff"/>
      </g>
      <path id="Path_2608" data-name="Path 2608" d="M248.656,185.7a32.458,32.458,0,0,0,3.745-25.143c-2.453-8.789-9.463-16.342-18.258-18.776-9.987-2.759-20.649,1.042-29.569,6.3s-16.966,12.06-26.5,16.155c-2.74,1.174-5.936,2.1-8.614.818-8.627-4.145,4.544-11.6,7.491-13.4A148.9,148.9,0,0,1,200.1,140.084c11.529-4.557,23.982-7.69,36.267-6.074s24.344,8.7,29.407,20.019c4.051,9.114,3.171,19.594,1.642,29.451-.487,3.159-1.124,6.492-3.283,8.845-3.215,3.5-8.683,3.658-13.371,2.815-1.735-.306-3.677-.9-4.419-2.5-.9-1.954.493-4.12,1.66-5.924Q248.338,186.233,248.656,185.7Z" transform="translate(-138.771 -133.58)" fill="none" stroke="#263238" stroke-miterlimit="10" stroke-width="1.5"/>
      <path id="Path_2609" data-name="Path 2609" d="M223.544,333.292s26.311,2.328,20.649,4.663-9.987,1.33-32.64,4.326-55.287,3-70.274,3-18.982,2.665-10.325,2.665,26.311,0,60.618,1.33,74.906,9.326,95.58,1,.668-15.655.668-15.655,8-1.66,1.336-4.326-32.31-5.331-44.319-7-18.645,2-10.325,2,47.628,4,42.634,7.328-29.307-.331-37.3-2S221.528,330.627,223.544,333.292Z" transform="translate(-123.69 -204.709)" fill="#263238"/>
      <path id="Path_2610" data-name="Path 2610" d="M327.664,312.228s2.116,10.387,5.381,15.967,9.813,5.194,10.774.768-3.458-9.987-4.613-14.232S338.244,303,338.244,303,327.277,302.034,327.664,312.228Z" transform="translate(-199.302 -197.234)" fill="#7e57c2"/>
      <g id="Group_6064" data-name="Group 6064" transform="translate(128.352 105.737)" clip-path="url(#clip-path-3)">
        <path id="Path_2611" data-name="Path 2611" d="M333.35,333.526a29.7,29.7,0,0,0,1.835,3.864c3.271,5.581,9.813,5.194,10.774.768.718-3.277-1.529-7.191-3.208-10.718a11.735,11.735,0,0,0-9.4,6.086Z" transform="translate(-329.794 -312.166)" fill="#fff"/>
      </g>
      <path id="Path_2613" data-name="Path 2613" d="M327.664,312.228s2.116,10.387,5.381,15.967,9.813,5.194,10.774.768-3.458-9.987-4.613-14.232S338.244,303,338.244,303,327.277,302.034,327.664,312.228Z" transform="translate(-199.302 -197.234)" fill="none" stroke="#263238" stroke-miterlimit="10" stroke-width="1.5"/>
      <path id="Path_2614" data-name="Path 2614" d="M342.46,338.45s2.69,3.464,1.923,6.929" transform="translate(-204.866 -210.566)" fill="none" stroke="#263238" stroke-linecap="round" stroke-miterlimit="10" stroke-width="1.5"/>
      <path id="Path_2615" data-name="Path 2615" d="M347.7,336.29a5.668,5.668,0,0,1,2.5,6.929" transform="translate(-206.835 -209.755)" fill="none" stroke="#263238" stroke-linecap="round" stroke-miterlimit="10" stroke-width="1.5"/>
      <path id="Path_2616" data-name="Path 2616" d="M304.1,322.908s-5.574,5.774-11.542,7.491-11.929,1.348-11.155-1.348,3.458-3.652,6.923-3.652,10.612-7.122,10.612-7.122S306.6,313.482,304.1,322.908Z" transform="translate(-181.894 -202.527)" fill="#7e57c2" stroke="#263238" stroke-miterlimit="10" stroke-width="1.5"/>
      <path id="Path_2617" data-name="Path 2617" d="M176.9,278.478s-8.271,3.845-9.813,8.077a57.492,57.492,0,0,0-2.3,8.851s-10.393,4.806-18.277,7.491-15.967,3.652-20.6,6.923-4.813,6.929-2.116,9.619,8.077,1.735,9.813.768,5.768-4.806,11.155-5.768,21.548,2.31,30.974.381,17.478-4.994,19.625-4.994,10.612,1.155,16.161-2.5,1.923-20.6-2.31-28.858S182.674,275.588,176.9,278.478Z" transform="translate(-122.033 -186.375)" fill="#7e57c2"/>
      <g id="Group_6065" data-name="Group 6065" transform="translate(0 87.699)" clip-path="url(#clip-path-4)">
        <path id="Path_2618" data-name="Path 2618" d="M196.514,294.722c-3.34-5.531-6.08-15.918-11.392-17.952a43.073,43.073,0,0,0-8.227,2.722s-.861.4-2.085,1.086c-1.966,2.253-1.873,4.7.094,6.242,3.246,2.5,14.769,15.849,11.529,14.763a6.605,6.605,0,0,1-1.511-.78c-3.483-2.278-8.858-8.159-12.9-10.019-4.682-2.166,4.32,9.719,4.32,13.321s-3.6.362-6.866-3.6-3.964-.356-2.16,3.6-.724,5.762-8.283,5.762-16.567.362-16.567.362A8.165,8.165,0,0,0,140.2,305.8c-5.674,1.511-10.924,2.672-14.313,5.069-4.619,3.271-4.813,6.929-2.116,9.619s8.077,1.735,9.813.768,5.768-4.806,11.155-5.768,21.548,2.31,30.974.381,17.478-4.994,19.625-4.994c1.973,0,9.451,1,14.981-1.816C208.106,307.226,199.984,300.472,196.514,294.722Z" transform="translate(-122.028 -275.087)" fill="#fff"/>
      </g>
      <path id="Path_2620" data-name="Path 2620" d="M176.9,278.478s-8.271,3.845-9.813,8.077a57.492,57.492,0,0,0-2.3,8.851s-10.393,4.806-18.277,7.491-15.967,3.652-20.6,6.923-4.813,6.929-2.116,9.619,8.077,1.735,9.813.768,5.768-4.806,11.155-5.768,21.548,2.31,30.974.381,17.478-4.994,19.625-4.994,10.612,1.155,16.161-2.5,1.923-20.6-2.31-28.858S182.674,275.588,176.9,278.478Z" transform="translate(-122.033 -186.375)" fill="none" stroke="#263238" stroke-miterlimit="10" stroke-width="1.5"/>
      <circle id="Ellipse_39" data-name="Ellipse 39" cx="1.542" cy="1.542" r="1.542" transform="translate(2.345 126.916)" fill="#263238"/>
      <circle id="Ellipse_40" data-name="Ellipse 40" cx="2.884" cy="2.884" r="2.884" transform="translate(7.351 124.806)" fill="#263238"/>
      <circle id="Ellipse_41" data-name="Ellipse 41" cx="1.542" cy="1.542" r="1.542" transform="translate(4.848 130.38)" fill="#263238"/>
      <circle id="Ellipse_42" data-name="Ellipse 42" cx="1.542" cy="1.542" r="1.542" transform="translate(8.693 130.38)" fill="#263238"/>
      <path id="Path_2621" data-name="Path 2621" d="M229.037,269.82c8.851,9.619,15.393,13.858,24.432,14.981s20.78,0,29.819-3.845,11.161-6.348,11.161-6.348a53.167,53.167,0,0,0,6.155-3.658c4.426-2.884,12.484-11.348,14.619-22.316a41.661,41.661,0,0,0-4.526-28.265c-5.618-9.713-15.955-14.688-27.016-14.881-6.723-.112-12.953,2.3-18.477,6.017-10.581,7.116-13.109,13.277-13.109,13.277H241.16s-5.387-2.116-15.2,7.884" transform="translate(-161.087 -160.6)" fill="#7e57c2"/>
      <g id="Group_6066" data-name="Group 6066" transform="translate(64.873 44.884)" clip-path="url(#clip-path-5)">
        <path id="Path_2622" data-name="Path 2622" d="M328.6,270.982c-.718-6.866-4.32.724-5.4,3.24-2.129,4.994-1.08-11.86-4.326-15.843s.724,9.725-.356,14.407-.362-3.246-2.884-7.928,1.08,6.124-4.32,12.247-15.131.362-15.131.362c4.519,12.79-7.566,22.609-15.312,27.4a60.387,60.387,0,0,0,23.052-4.27c9.045-3.845,11.161-6.348,11.161-6.348a53.159,53.159,0,0,0,6.155-3.658,25.908,25.908,0,0,0,3.408-2.753C327.655,281.812,329.1,275.776,328.6,270.982Z" transform="translate(-246.594 -225.092)" fill="#fff"/>
      </g>
      <path id="Path_2624" data-name="Path 2624" d="M229.037,269.82c8.851,9.619,15.393,13.858,24.432,14.981s20.78,0,29.819-3.845,11.161-6.348,11.161-6.348a53.167,53.167,0,0,0,6.155-3.658c4.426-2.884,12.484-11.348,14.619-22.316a41.661,41.661,0,0,0-4.526-28.265c-5.618-9.713-15.955-14.688-27.016-14.881-6.723-.112-12.953,2.3-18.477,6.017-10.581,7.116-13.109,13.277-13.109,13.277H241.16s-5.387-2.116-15.2,7.884" transform="translate(-161.087 -160.6)" fill="none" stroke="#263238" stroke-miterlimit="10" stroke-width="1.5"/>
      <path id="Path_2625" data-name="Path 2625" d="M214.788,278.535s6.542,9.987,17.478,12.484,13.658-12.7,12.7-20.6-4.426-7.7-5.768-5.961-7.7,6.923-14.045,8.271S213.827,275.071,214.788,278.535Z" transform="translate(-156.844 -182.393)" fill="#fff"/>
      <path id="Path_2626" data-name="Path 2626" d="M190.628,218.935a32.353,32.353,0,0,0-6.348-.424c-2.541.212-7.622,2.541-9.95,2.959s-1.248,1.248,1.7,4.657,9.944,5.506,9.944,5.506Z" transform="translate(-141.211 -165.489)" fill="#7e57c2" stroke="#263238" stroke-miterlimit="10" stroke-width="1.5"/>
      <path id="Path_2627" data-name="Path 2627" d="M232.173,241.387s-3.6,9.1-9.095,12.066a24.669,24.669,0,0,1-10.612,2.965,18.11,18.11,0,0,1-10.793,4.02c-6.985.424-11.236-5.93-11.236-8.046V246.68s-4.444-5.506-4.232-8.464.424-16.3,8.046-21.585,15.025-4.657,20.949-3.389,12.484,8.464,14.6,12.7a24.548,24.548,0,0,1,2.122,9.526" transform="translate(-146.145 -163.185)" fill="#7e57c2"/>
      <g id="Group_6067" data-name="Group 6067" transform="translate(40.053 49.177)" clip-path="url(#clip-path-6)">
        <path id="Path_2628" data-name="Path 2628" d="M204.86,264.138l-3.246-5.406s-.718-6.479-4.32-10.081-1.136,11.242-1.136,11.242a10.475,10.475,0,0,0-3.059,1.2v4.719c0,2.116,4.232,8.471,11.236,8.046a20.069,20.069,0,0,0,7.416-1.873C210.578,266.453,204.86,264.138,204.86,264.138Z" transform="translate(-188.792 -225.787)" fill="#fff"/>
        <path id="Path_2629" data-name="Path 2629" d="M210.32,268.644s2.129-4.257,7.715-1.067" transform="translate(-195.263 -232.665)" fill="none" stroke="#263238" stroke-linecap="round" stroke-miterlimit="10" stroke-width="2"/>
        <path id="Path_2630" data-name="Path 2630" d="M191.57,260.91s2.129-1.336,2.659,2.391" transform="translate(-188.217 -230.518)" fill="none" stroke="#263238" stroke-linecap="round" stroke-miterlimit="10" stroke-width="2"/>
        <path id="Path_2631" data-name="Path 2631" d="M200.94,283.64a7.84,7.84,0,0,0,3.464,3.19" transform="translate(-191.738 -239.147)" fill="none" stroke="#263238" stroke-linecap="round" stroke-miterlimit="10" stroke-width="1"/>
        <path id="Path_2632" data-name="Path 2632" d="M214.24,247.783s1.442,5.037,8.645,6.117,9.638-1.792,7.341-4.313S215.682,247.783,214.24,247.783Z" transform="translate(-196.736 -225.637)" fill="#263238"/>
        <path id="Path_2633" data-name="Path 2633" d="M228.682,245.644a46.832,46.832,0,0,1-10.581,1.692c-4.657,0-6.773-4.02-7.834-5.268s4.232-5.924,10.612-4.657S228.682,245.644,228.682,245.644Z" transform="translate(-195.192 -221.693)" fill="#7e57c2" stroke="#263238" stroke-miterlimit="10" stroke-width="1.5"/>
        <path id="Path_2634" data-name="Path 2634" d="M201.908,282.25c.524-.456.624-1.211-.381-1.542-1.33-.437-3.483-.974-3.034.362a2.422,2.422,0,0,0,2.5,1.554A1.561,1.561,0,0,0,201.908,282.25Z" transform="translate(-190.796 -237.863)" fill="#263238"/>
        <path id="Path_2635" data-name="Path 2635" d="M241.977,269.18s-1.442,1.08-5.768,1.08-7.559-.356-7.559-.356a60.693,60.693,0,0,0,8.283,2.16C239.817,272.426,241.977,269.18,241.977,269.18Z" transform="translate(-202.151 -233.713)" fill="#263238"/>
        <path id="Path_2636" data-name="Path 2636" d="M235.935,276.178a5.8,5.8,0,0,1-5.4,1.08c-2.9-1.08-6.486-2.878-6.486-2.878S233.057,276.9,235.935,276.178Z" transform="translate(-200.422 -235.667)" fill="#263238"/>
        <path id="Path_2637" data-name="Path 2637" d="M211.666,225.33a11.923,11.923,0,0,0-6.866,9.363,40.316,40.316,0,0,0,0,10.8S206.248,231.816,211.666,225.33Z" transform="translate(-193.063 -217.235)" fill="#263238"/>
        <path id="Path_2638" data-name="Path 2638" d="M197.582,227.07s-3.633,1.523-4.157,7.784-.524,10.612-.524,10.612S194.7,232.107,197.582,227.07Z" transform="translate(-188.717 -217.889)" fill="#263238"/>
      </g>
      <path id="Path_2640" data-name="Path 2640" d="M232.173,241.387s-3.6,9.1-9.095,12.066a24.669,24.669,0,0,1-10.612,2.965,18.11,18.11,0,0,1-10.793,4.02c-6.985.424-11.236-5.93-11.236-8.046V246.68s-4.444-5.506-4.232-8.464.424-16.3,8.046-21.585,15.025-4.657,20.949-3.389,12.484,8.464,14.6,12.7a24.548,24.548,0,0,1,2.122,9.526" transform="translate(-146.145 -163.185)" fill="none" stroke="#263238" stroke-miterlimit="10" stroke-width="1.5"/>
      <path id="Path_2641" data-name="Path 2641" d="M184,274.758s-9.476-2.684-15.056-2.878" transform="translate(-139.66 -185.551)" fill="none" stroke="#263238" stroke-linecap="round" stroke-miterlimit="10" stroke-width="0.5"/>
      <path id="Path_2642" data-name="Path 2642" d="M181.708,278.691s-13.109-1.155-19.238,0" transform="translate(-137.229 -187.917)" fill="none" stroke="#263238" stroke-linecap="round" stroke-miterlimit="10" stroke-width="0.5"/>
      <path id="Path_2643" data-name="Path 2643" d="M182.67,281.13s-15.605.768-20.2,2.3" transform="translate(-137.229 -189.027)" fill="none" stroke="#263238" stroke-linecap="round" stroke-miterlimit="10" stroke-width="0.5"/>
      <path id="Path_2644" data-name="Path 2644" d="M214.86,286.36s1.155,8.851,1.735,14.981" transform="translate(-156.916 -190.992)" fill="none" stroke="#263238" stroke-linecap="round" stroke-miterlimit="10" stroke-width="0.5"/>
      <path id="Path_2645" data-name="Path 2645" d="M216.4,283.59s6.355,9.813,6.355,14.619" transform="translate(-157.495 -189.951)" fill="none" stroke="#263238" stroke-linecap="round" stroke-miterlimit="10" stroke-width="0.5"/>
      <path id="Path_2646" data-name="Path 2646" d="M220.1,282.67s7.491,6.348,9.045,12.116" transform="translate(-158.885 -189.605)" fill="none" stroke="#263238" stroke-linecap="round" stroke-miterlimit="10" stroke-width="0.5"/>
      <path id="Path_2647" data-name="Path 2647" d="M335.68,299.466s10.581-8.658,9.039-27.9" transform="translate(-202.318 -185.434)" fill="none" stroke="#263238" stroke-linecap="round" stroke-miterlimit="10" stroke-width="1.5"/>
      <path id="Path_2648" data-name="Path 2648" d="M263.677,280.2s6.542.193,14.813,4.619,16.542,6.542,16.542,11.348-17.122,14.813-25.393,20.967-14.813,12.122-20.6,13.664-13.271,1.729-14.232-2.116,4.039-4.813,6.923-5.193,7.7-1.542,7.7-1.542l9.8-9.413s-11.161-.768-16.354-9.813" transform="translate(-164.366 -188.677)" fill="#7e57c2"/>
      <g id="Group_6068" data-name="Group 6068" transform="translate(70.32 91.523)" clip-path="url(#clip-path-7)">
        <path id="Path_2649" data-name="Path 2649" d="M256.94,313.441a14.787,14.787,0,0,0,10.081-6.486A38.879,38.879,0,0,0,271.7,293.99s0,8.283-2.5,13.689S256.94,313.441,256.94,313.441Z" transform="translate(-243.049 -285.382)" fill="#263238"/>
        <path id="Path_2650" data-name="Path 2650" d="M284.481,288.8s3.6,7.2.362,12.965a21.9,21.9,0,0,1-8.283,8.283S285.923,301.409,284.481,288.8Z" transform="translate(-250.422 -283.432)" fill="#263238"/>
        <path id="Path_2651" data-name="Path 2651" d="M271.94,340.053l5.4,3.6S276.971,338.973,271.94,340.053Z" transform="translate(-248.686 -302.631)" fill="#263238"/>
        <path id="Path_2652" data-name="Path 2652" d="M280,331.4l5.4,3.6S285.056,330.316,280,331.4Z" transform="translate(-251.714 -299.379)" fill="#263238"/>
        <path id="Path_2653" data-name="Path 2653" d="M295.6,321.6l5.4,3.6S300.637,320.541,295.6,321.6Z" transform="translate(-257.577 -295.698)" fill="#263238"/>
        <path id="Path_2654" data-name="Path 2654" d="M304.83,312.905l5.4,3.6S309.874,311.844,304.83,312.905Z" transform="translate(-261.045 -292.431)" fill="#263238"/>
        <path id="Path_2655" data-name="Path 2655" d="M252.218,351.663c-.368-1.729-2.59-3.034-4.594-3.883-1.66.368-4.12.886-5.874,1.124-2.884.381-7.884,1.342-6.923,5.193s8.464,3.652,14.232,2.116a19.294,19.294,0,0,0,4.176-1.754A11.088,11.088,0,0,1,252.218,351.663Z" transform="translate(-234.694 -305.595)" fill="#fff"/>
        <path id="Path_2656" data-name="Path 2656" d="M283.381,312.263c2.5-3.6-.718,1.442-8.283,6.124s-18.365,1.442-18.365,1.442l-.343.225a24.345,24.345,0,0,0,10.992,4.07l-4.37,4.226C271.053,325.372,281.022,315.659,283.381,312.263Z" transform="translate(-242.842 -291.789)" fill="#fff"/>
      </g>
      <path id="Path_2658" data-name="Path 2658" d="M263.677,280.2s6.542.193,14.813,4.619,16.542,6.542,16.542,11.348-17.122,14.813-25.393,20.967-14.813,12.122-20.6,13.664-13.271,1.729-14.232-2.116,4.039-4.813,6.923-5.193,7.7-1.542,7.7-1.542l9.8-9.413s-11.161-.768-16.354-9.813" transform="translate(-164.366 -188.677)" fill="none" stroke="#263238" stroke-miterlimit="10" stroke-width="1.5"/>
      <path id="Path_2659" data-name="Path 2659" d="M274,322.155s15.774-3.077,17.7-16.355" transform="translate(-179.14 -198.297)" fill="none" stroke="#263238" stroke-linecap="round" stroke-miterlimit="10" stroke-width="1.5"/>
      <path id="Path_2660" data-name="Path 2660" d="M234.9,355.9s1.536-2.89,3.845-3.271" transform="translate(-164.446 -215.895)" fill="none" stroke="#263238" stroke-linecap="round" stroke-miterlimit="10" stroke-width="1.5"/>
      <path id="Path_2661" data-name="Path 2661" d="M238.9,358.712s1.155-4.232,4.619-4.232" transform="translate(-165.95 -216.59)" fill="none" stroke="#263238" stroke-linecap="round" stroke-miterlimit="10" stroke-width="1.5"/>
      <path id="Path_2662" data-name="Path 2662" d="M276,238.3s10.805,1.086,18.727,9.007,9.363,22.69,9.363,18.727-2.16-14.763-6.866-20.531S279.227,236.5,276,238.3Z" transform="translate(-179.891 -172.745)" fill="#263238"/>
      <path id="Path_2663" data-name="Path 2663" d="M262.49,245.043a27.422,27.422,0,0,1,15.069,7.241c6.373,6.373,7.534,18.258,7.534,15.056s-1.742-11.86-5.506-16.517S265.1,243.62,262.49,245.043Z" transform="translate(-174.814 -175.318)" fill="#263238"/>
      <path id="Path_2664" data-name="Path 2664" d="M286.94,228.5s10.805,1.08,18.727,9,9.363,22.69,9.363,18.727-2.16-14.763-6.866-20.524S290.18,226.7,286.94,228.5Z" transform="translate(-184.002 -169.062)" fill="#263238"/>
      <path id="Path_2665" data-name="Path 2665" d="M301.37,211.761s10.8,1.08,18.727,9.007,9.363,22.69,9.363,18.727-2.16-14.769-6.866-20.531S304.61,209.963,301.37,211.761Z" transform="translate(-189.425 -162.772)" fill="#263238"/>
    </g>
    <g id="freepik--Ball--inject-61" transform="translate(91.286 249.951)">
      <ellipse id="Ellipse_43" data-name="Ellipse 43" cx="7.491" cy="3.496" rx="7.491" ry="3.496" transform="translate(5.318 14.625)" fill="#263238"/>
      <circle id="Ellipse_44" data-name="Ellipse 44" cx="10.193" cy="10.193" r="10.193" fill="#7e57c2" stroke="#263238" stroke-miterlimit="10" stroke-width="1.5"/>
      <path id="Path_2666" data-name="Path 2666" d="M126.782,347.506a2.74,2.74,0,1,1-2.74-2.846,2.79,2.79,0,0,1,2.74,2.846Z" transform="translate(-116.994 -341.938)" fill="#fff"/>
    </g>
  </g>
</svg>
