<svg xmlns="http://www.w3.org/2000/svg" width="62.386" height="62.392" viewBox="0 0 62.386 62.392">
  <path id="rabbit" d="M45.79,2.828c-7.307-5.881-18.909-2.292-20.055,8-.048.519-.09,1.072-.125,1.612a20.39,20.39,0,0,0-3.848,0c-.035-.54-.077-1.093-.125-1.612C20.487.525,8.878-3.047,1.581,2.828a3.986,3.986,0,0,0,.026,6.284,13.373,13.373,0,0,0,8.082,2.872c.133,1.818.229,4,.285,5.468C2,24-.113,35.915,7.876,43.135c3.731,3.391,11.87,6.263,15.81,1.95,3.936,4.314,12.082,1.439,15.81-1.95C47.485,35.914,45.37,24,37.4,17.451c.056-1.463.151-3.649.285-5.468a13.373,13.373,0,0,0,8.082-2.872,3.986,3.986,0,0,0,.026-6.284ZM43.514,6.183a9.708,9.708,0,0,1-5.87,2.107H35.991a1.846,1.846,0,0,0-1.836,1.647c-.252,2.325-.41,6.2-.482,8.307a1.846,1.846,0,0,0,.718,1.525c3.988,3.076,6.466,7.628,6.466,11.879,0,7.455-6.2,11.909-12.186,11.909a3.142,3.142,0,0,1-3.139-3.139V38.3a7.023,7.023,0,0,0,2.707-3.071c.266-.692-.248-2.381-4.634-2.381s-4.74,1.689-4.474,2.381a7.259,7.259,0,0,0,2.708,3.124v2.065A3.142,3.142,0,0,1,18.7,43.557c-5.99,0-12.186-4.455-12.186-11.909,0-4.251,2.478-8.8,6.466-11.879a1.846,1.846,0,0,0,.718-1.525c-.072-2.1-.23-5.982-.482-8.307a1.846,1.846,0,0,0-1.836-1.647H9.727a9.708,9.708,0,0,1-5.87-2.107.278.278,0,0,1-.113-.226.259.259,0,0,1,.1-.215c5.039-4.13,13.325-1.865,14.11,5.432.114,1.224.189,2.7.224,3.47a1.847,1.847,0,0,0,2.2,1.728,16.829,16.829,0,0,1,6.595,0,1.847,1.847,0,0,0,2.2-1.728c.035-.771.11-2.247.224-3.47.786-7.3,9.077-9.559,14.11-5.432h0a.259.259,0,0,1,.1.215.278.278,0,0,1-.113.226ZM31.525,26.937a2.308,2.308,0,1,1-2.113-2.113A2.309,2.309,0,0,1,31.525,26.937Zm-15.772,0a2.308,2.308,0,1,0,2.113-2.113A2.309,2.309,0,0,0,15.753,26.937Z" transform="matrix(0.914, -0.407, 0.407, 0.914, -0.056, 19.243)" fill="#f72442" opacity="0.4"/>
</svg>
