<svg xmlns="http://www.w3.org/2000/svg" width="15" height="15" viewBox="0 0 15 15">
  <g id="bone" transform="translate(0 -3.467)">
    <g id="Group_6152" data-name="Group 6152" transform="translate(0 3.467)">
      <g id="Group_6151" data-name="Group 6151" transform="translate(0 0)">
        <path id="Path_2691" data-name="Path 2691" d="M14.354,6.668a2.194,2.194,0,0,0-1.884-.633,2.254,2.254,0,0,0-.625-1.911,2.191,2.191,0,0,0-3.128,0,2.266,2.266,0,0,0-.3,2.792l-4.893,4.96A2.19,2.19,0,0,0,.648,12.1a2.264,2.264,0,0,0,0,3.171,2.194,2.194,0,0,0,1.884.633,2.254,2.254,0,0,0,.625,1.911,2.191,2.191,0,0,0,3.128,0A2.266,2.266,0,0,0,6.5,14.9l4.861-4.928a2.19,2.19,0,0,0,2.989-.129A2.267,2.267,0,0,0,14.354,6.668Zm-.414,2.751a1.61,1.61,0,0,1-2.3,0c-.02-.021-.041-.043-.061-.065a.29.29,0,0,0-.425-.012L5.9,14.669a.3.3,0,0,0,0,.416,1.673,1.673,0,0,1-.024,2.306,1.61,1.61,0,0,1-2.3,0,1.66,1.66,0,0,1-.352-1.8.3.3,0,0,0-.063-.324.29.29,0,0,0-.32-.064,1.611,1.611,0,0,1-1.775-.356,1.664,1.664,0,0,1,0-2.331,1.61,1.61,0,0,1,2.275-.024.29.29,0,0,0,.41,0L9.007,7.156a.3.3,0,0,0,.019-.4,1.657,1.657,0,0,1,.105-2.213,1.61,1.61,0,0,1,2.3,0,1.66,1.66,0,0,1,.352,1.8.3.3,0,0,0,.063.324.29.29,0,0,0,.32.064,1.611,1.611,0,0,1,1.775.356A1.666,1.666,0,0,1,13.939,9.418Z" transform="translate(0 -3.467)" fill="#f72442"/>
      </g>
    </g>
    <g id="Group_6154" data-name="Group 6154" transform="translate(4.558 10.737)">
      <g id="Group_6153" data-name="Group 6153">
        <path id="Path_2692" data-name="Path 2692" d="M157.436,248.344a.29.29,0,0,0-.414,0l-1.366,1.385a.3.3,0,0,0,0,.42.29.29,0,0,0,.414,0l1.366-1.385A.3.3,0,0,0,157.436,248.344Z" transform="translate(-155.569 -248.257)" fill="#f72442"/>
      </g>
    </g>
    <g id="Group_6156" data-name="Group 6156" transform="translate(6.54 10.106)">
      <g id="Group_6155" data-name="Group 6155">
        <path id="Path_2693" data-name="Path 2693" d="M223.734,227.1a.29.29,0,0,0-.414,0l-.007.007a.3.3,0,0,0,0,.42.29.29,0,0,0,.414,0l.007-.007A.3.3,0,0,0,223.734,227.1Z" transform="translate(-223.227 -227.009)" fill="#f72442"/>
      </g>
    </g>
  </g>
</svg>
