<svg xmlns="http://www.w3.org/2000/svg" width="53" height="53" viewBox="0 0 53 53">
  <g id="diamond" transform="translate(0 -0.001)">
    <g id="Group_6035" data-name="Group 6035" transform="translate(0 0.001)">
      <path id="Path_2508" data-name="Path 2508" d="M81.573,61.328a1.035,1.035,0,0,0-.485,2.013,18.633,18.633,0,1,1-8.767,0,1.035,1.035,0,0,0-.485-2.013,20.8,20.8,0,0,0-11.324,7.225A20.479,20.479,0,0,0,56,81.454a20.7,20.7,0,0,0,41.406,0,20.48,20.48,0,0,0-4.511-12.9,20.8,20.8,0,0,0-11.324-7.225Z" transform="translate(-50.204 -54.954)" fill="#1def40"/>
      <path id="Path_2509" data-name="Path 2509" d="M52.376,24.011l-1.211-2.259.2-2.793a5.285,5.285,0,0,0-1.913-4.677l-2.01-1.646-.791-2.382a5.321,5.321,0,0,0-3.621-3.827l-2.481-.75-1.9-2.2A5.3,5.3,0,0,0,34.1,1.638L31.522,1.9,28.991.625a5.282,5.282,0,0,0-4.981,0L21.751,1.836l-2.793-.2A5.282,5.282,0,0,0,14.28,3.547l-1.646,2.01-2.382.791A5.32,5.32,0,0,0,6.424,9.969L5.675,12.45l-2.2,1.9A5.3,5.3,0,0,0,1.637,18.9l.257,2.575L.624,24.01a5.281,5.281,0,0,0,0,4.981L1.835,31.25l-.2,2.793a5.284,5.284,0,0,0,1.913,4.677l2.01,1.646.791,2.382a5.321,5.321,0,0,0,3.621,3.827l2.481.749,1.9,2.2A5.3,5.3,0,0,0,18.9,51.364l2.575-.257,2.531,1.27a5.282,5.282,0,0,0,4.981,0l2.259-1.211,2.793.2a5.283,5.283,0,0,0,4.677-1.913l1.646-2.01,2.382-.791a5.32,5.32,0,0,0,3.827-3.621l.749-2.481,2.2-1.9A5.3,5.3,0,0,0,51.363,34.1l-.257-2.575,1.27-2.531a5.281,5.281,0,0,0,0-4.981Zm-1.831,4.015-.013.025-1.41,2.812a1.036,1.036,0,0,0-.1.567L49.3,34.3a3.23,3.23,0,0,1-1.129,2.778l-2.43,2.1a1.035,1.035,0,0,0-.314.484l-.836,2.768a3.244,3.244,0,0,1-2.364,2.215c-.031.007-.061.016-.091.026l-2.709.9a1.036,1.036,0,0,0-.475.327l-1.837,2.243a3.221,3.221,0,0,1-2.865,1.164l-.041,0L31.1,49.08a1.029,1.029,0,0,0-.564.12l-2.522,1.352a3.215,3.215,0,0,1-3.039-.006l-.025-.013-2.812-1.411a1.036,1.036,0,0,0-.464-.11c-.034,0-.068,0-.1.005L18.7,49.3a3.233,3.233,0,0,1-2.777-1.129l-2.1-2.43a1.035,1.035,0,0,0-.484-.314l-2.769-.836a3.245,3.245,0,0,1-2.215-2.364c-.007-.031-.016-.061-.026-.091l-.9-2.709a1.036,1.036,0,0,0-.327-.475L4.857,37.119a3.222,3.222,0,0,1-1.164-2.865c0-.014,0-.027,0-.041L3.921,31.1a1.035,1.035,0,0,0-.12-.564L2.449,28.015a3.214,3.214,0,0,1,.006-3.039l.013-.025,1.411-2.812a1.036,1.036,0,0,0,.1-.567L3.7,18.7a3.23,3.23,0,0,1,1.128-2.778l2.43-2.1a1.034,1.034,0,0,0,.314-.484l.836-2.769A3.245,3.245,0,0,1,10.77,8.352c.031-.007.061-.016.091-.026l2.709-.9a1.036,1.036,0,0,0,.475-.327l1.836-2.243a3.221,3.221,0,0,1,2.865-1.164l.041,0,3.112.225a1.037,1.037,0,0,0,.564-.12l2.522-1.352a3.214,3.214,0,0,1,3.039.006l.025.013L30.862,3.88a1.039,1.039,0,0,0,.567.1L34.3,3.7a3.232,3.232,0,0,1,2.777,1.129l2.1,2.43a1.034,1.034,0,0,0,.483.314l2.769.837a3.244,3.244,0,0,1,2.215,2.364c.007.031.016.061.026.091l.9,2.709a1.036,1.036,0,0,0,.327.475l2.243,1.836a3.223,3.223,0,0,1,1.164,2.866q0,.02,0,.041L49.078,21.9a1.035,1.035,0,0,0,.12.564l1.352,2.522a3.214,3.214,0,0,1-.006,3.039Z" transform="translate(0 -0.001)" fill="#1def40"/>
      <path id="Path_2510" data-name="Path 2510" d="M130.606,152.172l-4.28,6.472a2.146,2.146,0,0,0,.173,2.6L137.9,174.219a2.033,2.033,0,0,0,1.52.693h0a2.037,2.037,0,0,0,1.518-.687c2.571-2.836,5.145-5.794,7.634-8.654,1.238-1.422,2.517-2.893,3.775-4.324a2.151,2.151,0,0,0,.123-2.681l-4.3-6.509a2.04,2.04,0,0,0-1.7-.927h-14.1A2.048,2.048,0,0,0,130.606,152.172Zm3.259,8.693,3.234,9.3-8.177-9.3Zm7.448-7.665,1.573,5.594h-6.919l1.573-5.594Zm1.484,7.665-3.37,9.694-3.37-9.694Zm4.219,3.347c-1.733,1.991-3.507,4.03-5.29,6.038l3.263-9.385h4.946C148.955,161.983,147.973,163.112,147.016,164.212Zm3.129-5.417h-5.109l-1.573-5.594h2.982ZM132.4,153.2h2.987l-1.573,5.594h-5.109l3.646-5.513c.017-.026.033-.052.048-.079Z" transform="translate(-112.928 -135.486)" fill="#1def40"/>
      <path id="Path_2511" data-name="Path 2511" d="M247.04,58.071a1.035,1.035,0,1,0,0-2.07h0a1.035,1.035,0,0,0,0,2.07Z" transform="translate(-220.54 -50.204)" fill="#1def40"/>
    </g>
  </g>
</svg>
