<svg xmlns="http://www.w3.org/2000/svg" width="57.896" height="57.9" viewBox="0 0 57.896 57.9">
  <path id="dog" d="M47.212,13.79A7.377,7.377,0,0,1,40.626,20q.424,1.127.776,2.264a1.846,1.846,0,1,1-3.529,1.086,35.7,35.7,0,0,0-1.636-4.294,7.341,7.341,0,0,1-2.247-1.994,18.555,18.555,0,0,1-2.714-4.556,1.846,1.846,0,1,1,3.429-1.371,15.65,15.65,0,0,0,2.228,3.7A3.693,3.693,0,1,0,42.9,10.477c-1.5-2.154-6.631-6.86-8.7-6.776-.422,0-1.7,0-2.989,1.853a4.784,4.784,0,0,1-5.445,1.859,7.473,7.473,0,0,0-2.091-.384,7.468,7.468,0,0,0-2.09.384,4.784,4.784,0,0,1-5.445-1.859C14.847,3.7,13.563,3.7,13.142,3.7c-2.084-.08-7.212,4.633-8.7,6.776A3.693,3.693,0,1,0,10.4,14.836a15.639,15.639,0,0,0,2.228-3.7,1.846,1.846,0,1,1,3.429,1.371,18.552,18.552,0,0,1-2.714,4.556A7.34,7.34,0,0,1,11.1,19.061,35.69,35.69,0,0,0,9.46,23.355,1.846,1.846,0,1,1,5.93,22.269Q6.28,21.133,6.706,20A7.419,7.419,0,0,1,.12,13.79,7.337,7.337,0,0,1,1.456,8.3,31.22,31.22,0,0,1,6.209,3.392C8.9,1.147,11.237.009,13.142.009a7.225,7.225,0,0,1,6.024,3.442,1.115,1.115,0,0,0,1.262.453,11.416,11.416,0,0,1,3.239-.571A11.414,11.414,0,0,1,26.9,3.9a1.116,1.116,0,0,0,1.262-.453A7.225,7.225,0,0,1,34.191.009C37.75-.235,43.881,5.482,45.876,8.3a7.336,7.336,0,0,1,1.336,5.493ZM36.548,26.76C36.588,26.763,36.508,26.754,36.548,26.76ZM42.5,35.287c-2.153,8.15-10.231,12.049-18.64,11.99h-.006c-8.406.061-16.49-3.842-18.64-11.99a7.417,7.417,0,0,1,.945-5.638,7.01,7.01,0,0,1,5-2.889,23.618,23.618,0,0,1,8.9,1,12.949,12.949,0,0,1,7.417.058,23.615,23.615,0,0,1,9.077-1.062A6.791,6.791,0,0,1,42.5,35.287Zm-4.025-3.6a3.092,3.092,0,0,0-2.269-1.25,19.915,19.915,0,0,0-7.968,1.023,10.124,10.124,0,0,1-2.606,2.349,3.143,3.143,0,0,0,3.115,2.759,1.846,1.846,0,0,1,0,3.693,6.813,6.813,0,0,1-4.985-2.168,6.813,6.813,0,0,1-4.985,2.168,1.846,1.846,0,0,1,0-3.693,3.143,3.143,0,0,0,3.107-2.7,10.181,10.181,0,0,1-2.669-2.5,19.928,19.928,0,0,0-7.709-.936,3.092,3.092,0,0,0-2.269,1.25,3.819,3.819,0,0,0-.456,2.653c1.535,5.788,7.17,9.243,15.074,9.244s13.539-3.456,15.074-9.244A3.819,3.819,0,0,0,38.471,31.687ZM11.157,26.76C11.2,26.754,11.117,26.763,11.157,26.76ZM23.666,3.332C23.695,3.331,23.638,3.331,23.666,3.332ZM32.06,20.593a2.308,2.308,0,1,1-2.113-2.113,2.309,2.309,0,0,1,2.113,2.113Zm-16.7,0a2.308,2.308,0,1,0,2.113-2.113,2.309,2.309,0,0,0-2.113,2.113Z" transform="matrix(0.966, -0.259, 0.259, 0.966, -0.03, 12.241)" fill="#f72442" opacity="0.4"/>
</svg>
