<svg id="ico_24_social_media_tools_pinterest_circle" data-name="ico / 24 / social media &amp; tools / pinterest_circle" xmlns="http://www.w3.org/2000/svg" width="24" height="24" viewBox="0 0 24 24">
  <rect id="Bounding_box" data-name="Bounding box" width="24" height="24" fill="#657783" opacity="0"/>
  <path id="Icon_color" data-name="Icon color" d="M20,10.011A9.994,9.994,0,0,1,10,20a9.831,9.831,0,0,1-2.25-.26.48.48,0,0,1-.34-.28.489.489,0,0,1,0-.439l.15-.29a5.9,5.9,0,0,0,.56-1.538l.66-3.1a3.943,3.943,0,0,0,2.92,1.069c3.09,0,5.17-2.417,5.17-5.993,0-3.426-3-5.993-6.88-5.993s-6.88,2.7-6.88,5.993a5.471,5.471,0,0,0,1.78,4,.49.49,0,0,0,.49.12.47.47,0,0,0,.34-.37l.2-.9a.519.519,0,0,0-.11-.43,3.6,3.6,0,0,1-.94-2.377c0-2.347,2.29-4.255,5.12-4.255s5.12,1.788,5.12,4.255c0,2.068-.89,4.265-3.41,4.265a2.139,2.139,0,0,1-2.36-1.928l.65-3a1.8,1.8,0,0,0-.21-1.508A1.06,1.06,0,0,0,9,6.565c-1.47,0-1.55,2.467-1.55,3a10.4,10.4,0,0,0,.16,1.938l-1.28,5.763a5.727,5.727,0,0,0-.13,1.488.339.339,0,0,1-.14.28.31.31,0,0,1-.31,0A9.991,9.991,0,1,1,20,10.011Z" transform="translate(1.999 2)" fill="#657783"/>
</svg>
