<svg xmlns="http://www.w3.org/2000/svg" width="20" height="20" viewBox="0 0 20 20">
  <g id="Group_1623" data-name="Group 1623" transform="translate(-14.884 -379.884)">
    <rect id="Bounding_box" data-name="Bounding box" width="20" height="20" transform="translate(14.884 379.884)" fill="#8e8e93" opacity="0"/>
    <path id="Icon_color" data-name="Icon color" d="M8.283,11.532h-.1A8.765,8.765,0,0,1,.05,6.021.661.661,0,0,1,0,5.766a.8.8,0,0,1,.05-.271A8.765,8.765,0,0,1,8.181,0h.143a8.766,8.766,0,0,1,8.14,5.519.762.762,0,0,1,0,.247.666.666,0,0,1-.05.272,8.767,8.767,0,0,1-8.131,5.494ZM8.232,3.295A2.471,2.471,0,1,0,10.7,5.766,2.473,2.473,0,0,0,8.232,3.295Z" transform="translate(16.647 384.118)" fill="#8e8e93"/>
  </g>
</svg>
