<svg xmlns="http://www.w3.org/2000/svg" width="47.274" height="47.272" viewBox="0 0 47.274 47.272">
  <path id="snail" d="M26.776,47.282C9.913,47.363-.193,34.533,0,17.739a6.924,6.924,0,0,1,13.848,0,12.749,12.749,0,0,1-1.385,5.544v.456a17.894,17.894,0,0,0,1.648,7.569,1.846,1.846,0,1,1-3.3,1.664A21.486,21.486,0,0,1,8.773,23.74v-.923a1.846,1.846,0,0,1,.27-.961,9.067,9.067,0,0,0,1.115-4.117,3.231,3.231,0,1,0-6.462,0c0,15.945,8.844,25.85,23.08,25.85a16.821,16.821,0,0,0,16.8-16.8A13.033,13.033,0,0,0,30.56,13.77c-11.06-.1-14.245,16.8-2.1,17.726,3.369,0,6.437-2.762,6.437-5.795a3.536,3.536,0,0,0-3.534-3.53A2.513,2.513,0,0,0,28.9,24.664a1.846,1.846,0,1,1-3.693,0,6.154,6.154,0,0,1,1.806-4.356c4.29-4.316,11.724-.418,11.58,5.393a9.074,9.074,0,0,1-3.18,6.772c-4.251,3.93-11.069,3.418-15.032-.619-5-4.736-4.121-13.152.536-17.75a13.407,13.407,0,0,1,9.642-4.027,16.73,16.73,0,0,1,16.711,16.71c.224,11.053-9.441,20.72-20.495,20.5ZM3.882,9a1.847,1.847,0,0,0,.952-2.432A14.2,14.2,0,0,1,3.7,1.86,1.846,1.846,0,1,0,0,1.86,18.174,18.174,0,0,0,1.45,8.047,1.845,1.845,0,0,0,3.882,9Zm9.67-5.8a6.229,6.229,0,0,0-2.1,4.1V7.28h0a1.845,1.845,0,0,1-3.69.054h0s0-.018,0-.029A9.926,9.926,0,0,1,11.011.52,1.846,1.846,0,0,1,13.552,3.2Z" transform="translate(0 -0.014)" fill="#f72442" opacity="0.4"/>
</svg>
