<svg id="ico_24_actions_time" data-name="ico / 24 / actions / time" xmlns="http://www.w3.org/2000/svg" width="24" height="24" viewBox="0 0 24 24">
  <rect id="Bounding_box" data-name="Bounding box" width="24" height="24" fill="#657783" opacity="0"/>
  <path id="Icon_color" data-name="Icon color" d="M10,20A10,10,0,1,1,20,10,10.011,10.011,0,0,1,10,20ZM10,2a8,8,0,1,0,8,8A8.009,8.009,0,0,0,10,2Zm3.625,12.654a.508.508,0,0,1-.355-.144l-4-4a.533.533,0,0,1-.15-.35V4.5a.5.5,0,0,1,.5-.5h.76a.5.5,0,0,1,.5.5V9.64l3.63,3.63a.507.507,0,0,1,0,.71l-.53.53A.506.506,0,0,1,13.625,14.654Z" transform="translate(2 2)" fill="#657783"/>
</svg>
