<svg id="animal-shelter" xmlns="http://www.w3.org/2000/svg" width="32" height="32" viewBox="0 0 32 32">
  <path id="Path_2677" data-name="Path 2677" d="M138.481,258.515a2.509,2.509,0,0,0,.655,1.976,6.614,6.614,0,0,0,.5-.471l.36-.36a6.589,6.589,0,0,0,.47-.494C139.95,258.665,138.743,258.316,138.481,258.515Z" transform="translate(-129.776 -242.305)" fill="#386ce5"/>
  <path id="Path_2678" data-name="Path 2678" d="M241,212.859a6.1,6.1,0,0,0,.682.016h.511a6.288,6.288,0,0,0,.682-.016c-.009-.767-.639-1.818-.94-1.859C241.639,211.04,241.009,212.091,241,212.859Z" transform="translate(-225.937 -197.813)" fill="#386ce5"/>
  <path id="Path_2679" data-name="Path 2679" d="M214.574,331.661a.966.966,0,0,0-1.522,0,7.292,7.292,0,0,1-1.661,1.661.938.938,0,0,0,.548,1.7,5.568,5.568,0,0,0,1.561-.352l.314-.112.314.112a5.568,5.568,0,0,0,1.561.352.938.938,0,0,0,.547-1.7A7.316,7.316,0,0,1,214.574,331.661Z" transform="translate(-197.813 -310.584)" fill="#386ce5"/>
  <path id="Path_2680" data-name="Path 2680" d="M341.893,260.028a6.636,6.636,0,0,0,.5.471,2.49,2.49,0,0,0,.65-1.98,2.524,2.524,0,0,0-1.975.655,6.559,6.559,0,0,0,.47.494Z" transform="translate(-319.747 -242.313)" fill="#386ce5"/>
  <path id="Path_2681" data-name="Path 2681" d="M0,11.776v3.287H1.875V32h28.25V15.063H32V11.776L16,0Zm8.044,7.747c-1.056-1.056-1.859-3.445-.663-4.641,1.176-1.174,3.58-.4,4.64.663h0c1.073,1.075.574,2.095-.493,3.145l-.339.339c-1.056,1.075-2.085,1.555-3.147.494Zm11.935-3.978c1.068-1.068,3.466-1.832,4.64-.664,1.2,1.2.393,3.586-.663,4.642s-2.09.581-3.147-.494l-.339-.339C19.4,17.637,18.908,16.616,19.979,15.545Zm-.461,5.672h0a2.813,2.813,0,0,1-1.643,5.1A6.824,6.824,0,0,1,16,25.957a6.824,6.824,0,0,1-1.875.355,2.813,2.813,0,0,1-1.643-5.1,5.5,5.5,0,0,0,1.236-1.237,2.923,2.923,0,0,1,4.564,0,5.432,5.432,0,0,0,1.236,1.238Zm-.7-6.154c0,1.112-.6,1.875-2.342,1.875H15.5c-1.359-.031-2.316-.445-2.316-1.875,0-1.493,1.122-3.75,2.813-3.75S18.813,13.569,18.813,15.063Z" fill="#386ce5"/>
</svg>
