<svg xmlns="http://www.w3.org/2000/svg" width="24" height="24" viewBox="0 0 24 24">
  <g id="Facebook" transform="translate(-4 -4)" opacity="0.5">
    <path id="Facebook-2" data-name="Facebook" d="M12.819,24H1.325A1.325,1.325,0,0,1,0,22.675V1.325A1.324,1.324,0,0,1,1.325,0H22.675A1.324,1.324,0,0,1,24,1.325V22.675A1.325,1.325,0,0,1,22.675,24H16.56V14.706h3.12l.467-3.622H16.56V8.771c0-1.049.291-1.763,1.795-1.763h1.918V3.768a25.64,25.64,0,0,0-2.795-.143c-2.765,0-4.659,1.688-4.659,4.788v2.671H9.692v3.622h3.128V24Z" transform="translate(4 4)"/>
  </g>
</svg>
