<?xml version="1.0" encoding="utf-8"?>
<!-- Generator: Adobe Illustrator 24.0.1, SVG Export Plug-In . SVG Version: 6.00 Build 0)  -->
<svg version="1.1" id="ico_24_other_pet" xmlns="http://www.w3.org/2000/svg" xmlns:xlink="http://www.w3.org/1999/xlink" x="0px"
	 y="0px" viewBox="0 0 24 24" style="enable-background:new 0 0 24 24;" xml:space="preserve">
<style type="text/css">
	.st0{fill:#4B4B4B;fill-opacity:0;}
	.st1{fill:#F72442;}
</style>
<rect id="Bounding_box" y="0" class="st0" width="24" height="24"/>
<path id="Icon_color" class="st1" d="M17,21H7c-1.1,0-2-0.9-2-2v-0.2c0-0.5,0.2-1,0.6-1.4l1.6-1.6c0.5-0.5,1-1.1,1.3-1.8l0.9-1.9
	c0.3-0.7,1-1.1,1.8-1.1h1.5c0.8,0,1.5,0.4,1.8,1.1l0.9,1.9c0.3,0.7,0.8,1.3,1.3,1.8l1.6,1.6c0.4,0.4,0.6,0.9,0.6,1.4V19
	C19,20.1,18.1,21,17,21z M19,14c-1.1,0-2-0.9-2-2v-1c0-1.1,0.9-2,2-2c1.1,0,2,0.9,2,2v1C21,13.1,20.1,14,19,14z M5,14
	c-1.1,0-2-0.9-2-2v-1c0-1.1,0.9-2,2-2s2,0.9,2,2v1C7,13.1,6.1,14,5,14z M15,9c-1.1,0-2-0.9-2-2V5c0-1.1,0.9-2,2-2s2,0.9,2,2v2
	C17,8.1,16.1,9,15,9z M9,9C7.9,9,7,8.1,7,7V5c0-1.1,0.9-2,2-2s2,0.9,2,2v2C11,8.1,10.1,9,9,9z"/>
</svg>
