<svg xmlns="http://www.w3.org/2000/svg" width="15" height="13" viewBox="0 0 15 13">
  <g id="pawprint_3_" data-name="pawprint (3)" transform="translate(0 0)">
    <path id="Path_2695" data-name="Path 2695" d="M72.6,183.617a3.669,3.669,0,0,0-6.15,0l-1.626,2.516a2.278,2.278,0,0,0,.189,2.727,2.325,2.325,0,0,0,2.688.609l.03-.013a4.58,4.58,0,0,1,3.62.013,2.316,2.316,0,0,0,.928.195,2.348,2.348,0,0,0,.518-.058,2.3,2.3,0,0,0,1.242-.745,2.278,2.278,0,0,0,.189-2.727Zm.769,4.677a1.432,1.432,0,0,1-1.665.377,5.467,5.467,0,0,0-4.357,0l-.02.009a1.433,1.433,0,0,1-1.647-.385,1.4,1.4,0,0,1-.117-1.69l1.627-2.516a2.786,2.786,0,0,1,4.67,0l1.626,2.516A1.4,1.4,0,0,1,73.37,188.294Zm0,0" transform="translate(-62.571 -176.664)" fill="#f72442"/>
    <path id="Path_2696" data-name="Path 2696" d="M2.692,102.972a1.765,1.765,0,0,0,1.035-1.089,2.254,2.254,0,0,0-.041-1.567,2.279,2.279,0,0,0-1.029-1.189,1.787,1.787,0,0,0-1.5-.12,2.007,2.007,0,0,0-.994,2.655,2.14,2.14,0,0,0,1.926,1.42,1.692,1.692,0,0,0,.606-.111ZM.98,101.35a1.145,1.145,0,0,1,.489-1.528.822.822,0,0,1,.294-.054,1,1,0,0,1,.473.126,1.4,1.4,0,0,1,.629.736,1.389,1.389,0,0,1,.031.964.9.9,0,0,1-.521.564h0a1.16,1.16,0,0,1-1.4-.808Zm0,0" transform="translate(0 -96.021)" fill="#f72442"/>
    <path id="Path_2697" data-name="Path 2697" d="M126.617,4.979a2.362,2.362,0,0,0,2.2-2.489,2.22,2.22,0,1,0-4.406,0A2.362,2.362,0,0,0,126.617,4.979Zm0-4.107a1.5,1.5,0,0,1,1.324,1.618,1.351,1.351,0,1,1-2.648,0A1.5,1.5,0,0,1,126.617.872Zm0,0" transform="translate(-120.769)" fill="#f72442"/>
    <path id="Path_2698" data-name="Path 2698" d="M285.521,44.676h0a1.81,1.81,0,0,0,.567.091,2.28,2.28,0,0,0,2.079-1.622,2.422,2.422,0,0,0-.035-1.684,1.892,1.892,0,0,0-1.16-1.113,1.913,1.913,0,0,0-1.6.2,2.445,2.445,0,0,0-1.045,1.328A2.154,2.154,0,0,0,285.521,44.676Zm-.36-2.522a1.572,1.572,0,0,1,.666-.857,1.041,1.041,0,0,1,.869-.122,1.03,1.03,0,0,1,.622.613,1.557,1.557,0,0,1,.016,1.082,1.308,1.308,0,0,1-1.535.979A1.292,1.292,0,0,1,285.161,42.153Zm0,0" transform="translate(-275.869 -39.085)" fill="#f72442"/>
    <path id="Path_2699" data-name="Path 2699" d="M379.991,171.385h0a2.042,2.042,0,0,0-2.793.593,2,2,0,0,0,.244,2.821,1.732,1.732,0,0,0,1.035.331,2.233,2.233,0,0,0,1.759-.924A2,2,0,0,0,379.991,171.385Zm-.462,2.3a1.165,1.165,0,0,1-1.564.411,1.143,1.143,0,0,1-.061-1.6,1.353,1.353,0,0,1,1.047-.573.864.864,0,0,1,.517.163A1.144,1.144,0,0,1,379.529,173.688Zm0,0" transform="translate(-365.698 -166.085)" fill="#f72442"/>
  </g>
</svg>
