<svg xmlns="http://www.w3.org/2000/svg" width="57.406" height="56.014" viewBox="0 0 57.406 56.014">
  <path id="pet-bowl_1_" data-name="pet-bowl (1)" d="M38.969,55.983H8.32a8.35,8.35,0,0,1-8.245-9.34A59.508,59.508,0,0,1,4.09,31.3a9.207,9.207,0,0,1,8.524-5.687h22.6a9.247,9.247,0,0,1,8.721,6.2,67.493,67.493,0,0,1,3.3,15,8.349,8.349,0,0,1-8.264,9.172ZM12.615,29.3A5.524,5.524,0,0,0,7.5,32.715,55.764,55.764,0,0,0,3.74,47.1,4.64,4.64,0,0,0,8.32,52.29H38.969A4.616,4.616,0,0,0,43.56,47.2a63.744,63.744,0,0,0-3.115-14.167A5.55,5.55,0,0,0,35.212,29.3ZM28.63,47.65c0,2.194-2.176,2.24-5.041,2.24s-5.114-.045-5.114-2.24c0-1.468,2.692-7.546,5.078-7.546S28.63,46.22,28.63,47.65Zm-5.039,2.24h0ZM18.8,40.646a2.027,2.027,0,1,0-3.969.676C15.509,44.635,19.265,44,18.8,40.646Zm11.975-1.989c-2.763-.463-3.315,4.219-.821,4.748A2.337,2.337,0,0,0,32.37,41.23a2.054,2.054,0,0,0-1.6-2.573Zm-4.3-.869c1.087.114,2.085-.926,2.229-2.323a2.047,2.047,0,0,0-1.735-2.458C24.224,32.729,24,37.431,26.476,37.788Zm-5.755,0c2.473-.358,2.251-5.059-.494-4.781a2.047,2.047,0,0,0-1.735,2.458C18.636,36.862,19.634,37.9,20.721,37.788ZM35.068,16.509a7.209,7.209,0,0,0-12.56-3.295,5.657,5.657,0,0,0-8.194,3.544,5.782,5.782,0,0,0-4.141,5,1.846,1.846,0,1,0,3.679.315,2.114,2.114,0,0,1,2.1-1.86,1.846,1.846,0,0,0,1.836-1.655s.019-.21.019-.274a1.973,1.973,0,0,1,3.633-1.167,1.846,1.846,0,0,0,3.28-.427,3.431,3.431,0,0,1,3.222-2.344,3.542,3.542,0,0,1,3.551,3.442,1.846,1.846,0,0,0,1.428,1.8,2.6,2.6,0,0,1,1.618,1.955v.468a1.846,1.846,0,0,0,3.693,0v-.468a6.224,6.224,0,0,0-3.164-5.032Z" transform="matrix(0.966, 0.259, -0.259, 0.966, 14.49, -10.302)" fill="#f72442" opacity="0.4"/>
</svg>
